<svg xmlns="http://www.w3.org/2000/svg" width="70" height="70" fill="none" xmlns:v="https://vecta.io/nano"><g clip-path="url(#A)"><g fill="#4069bf"><path d="M38.889 20.222h15.556c2.148 0 3.889 2.409 3.889 5.38v21.519c0 2.971-1.741 5.38-3.889 5.38H38.889c-2.148 0-3.889-2.409-3.889-5.38V25.602c0-2.971 1.741-5.38 3.889-5.38z"/><path d="M54.444 17.5H38.889A3.89 3.89 0 0 0 35 21.389v15.556a3.89 3.89 0 0 0 3.889 3.889h15.556a3.89 3.89 0 0 0 3.889-3.889V21.389a3.89 3.89 0 0 0-3.889-3.889z"/></g><path d="M42.778 11.667H27.222a3.89 3.89 0 0 0-3.889 3.889V35a3.89 3.89 0 0 0 3.889 3.889h15.555A3.89 3.89 0 0 0 46.667 35V15.556a3.89 3.89 0 0 0-3.889-3.889z" fill="#3960b1"/><path d="M31.111 5.833H15.556a3.89 3.89 0 0 0-3.889 3.889v15.556a3.89 3.89 0 0 0 3.889 3.889h15.556A3.89 3.89 0 0 0 35 25.278V9.722a3.89 3.89 0 0 0-3.889-3.889z" fill="#2b4e95"/><path d="M19.444 0H3.889A3.89 3.89 0 0 0 0 3.889v15.556a3.89 3.89 0 0 0 3.889 3.889h15.556a3.89 3.89 0 0 0 3.889-3.889V3.889A3.89 3.89 0 0 0 19.444 0z" fill="#1e397c"/><path d="M66.111 23.333H50.556a3.89 3.89 0 0 0-3.889 3.889v15.556a3.89 3.89 0 0 0 3.889 3.889h15.556A3.89 3.89 0 0 0 70 42.778V27.222a3.89 3.89 0 0 0-3.889-3.889z" fill="#4e7bdb"/><path d="M23.333 35h23.333v19.444a3.89 3.89 0 0 1-3.889 3.889H27.222a3.89 3.89 0 0 1-3.889-3.889V35z" fill="#3960b1"/><path d="M31.111 40.833H15.556a3.89 3.89 0 0 0-3.889 3.889v15.556a3.89 3.89 0 0 0 3.889 3.889h15.556A3.89 3.89 0 0 0 35 60.278V44.722a3.89 3.89 0 0 0-3.889-3.889z" fill="#2b4e95"/><path d="M19.444 46.667H3.889A3.89 3.89 0 0 0 0 50.556v15.555A3.89 3.89 0 0 0 3.889 70h15.556a3.89 3.89 0 0 0 3.889-3.889V50.556a3.89 3.89 0 0 0-3.889-3.889z" fill="#1e397c"/></g><defs><clipPath id="A"><path fill="#fff" d="M0 0h70v70H0z"/></clipPath></defs></svg>