<svg xmlns="http://www.w3.org/2000/svg" width="70" height="70" fill="none" xmlns:v="https://vecta.io/nano"><g clip-path="url(#A)"><path d="M3.889 23.333h11.667a3.89 3.89 0 0 1 3.889 3.889v23.333a3.89 3.89 0 0 1-3.889 3.889H3.889C1.743 54.444 0 52.701 0 50.556V27.222a3.89 3.89 0 0 1 3.889-3.889z" fill="#1e397c"/><path d="M32.083 34.982v23.369a3.88 3.88 0 0 1-3.888 3.871H16.529c-2.147 0-3.889-1.733-3.889-3.871V34.982a3.88 3.88 0 0 1 3.888-3.871h11.667c2.147 0 3.889 1.733 3.889 3.871z" fill="#2b4e95"/><path d="M29.167 38.889h11.667a3.89 3.89 0 0 1 3.889 3.889v23.333A3.89 3.89 0 0 1 40.833 70H29.167a3.89 3.89 0 0 1-3.889-3.889V42.778a3.89 3.89 0 0 1 3.889-3.889z" fill="#3960b1"/><path d="M57.361 34.982v23.369a3.88 3.88 0 0 1-3.888 3.871H41.806c-2.147 0-3.889-1.733-3.889-3.871V34.982a3.88 3.88 0 0 1 3.888-3.871h11.667a3.88 3.88 0 0 1 3.889 3.871z" fill="#3a65c3"/><path d="M54.444 23.333h11.667A3.89 3.89 0 0 1 70 27.222v23.333a3.89 3.89 0 0 1-3.889 3.889H54.444a3.89 3.89 0 0 1-3.889-3.889V27.222a3.89 3.89 0 0 1 3.889-3.889z" fill="#4e7bdb"/><path d="M15.556 0H3.889A3.89 3.89 0 0 0 0 3.889v11.667a3.89 3.89 0 0 0 3.889 3.889h11.667a3.89 3.89 0 0 0 3.889-3.889V3.889A3.89 3.89 0 0 0 15.556 0z" fill="#1e397c"/><path d="M66.111 0H54.444a3.89 3.89 0 0 0-3.889 3.889v11.667a3.89 3.89 0 0 0 3.889 3.889h11.667A3.89 3.89 0 0 0 70 15.556V3.889A3.89 3.89 0 0 0 66.111 0z" fill="#4e7bdb"/></g><defs><clipPath id="A"><path fill="#fff" d="M0 0h70v70H0z"/></clipPath></defs></svg>