<svg xmlns="http://www.w3.org/2000/svg" viewBox="0 0 361 460" xmlns:v="https://vecta.io/nano"><style><![CDATA[.E{fill:#4e7bdb}.F{fill:#3a65c3}.G{fill:#2f55a8}.H{fill:#1e397c}]]></style><circle cx="237.39" cy="172.92" r="21.87" class="E"/><circle cx="244.37" cy="165.94" r="21.87" transform="matrix(.811268 -.584675 .584675 .811268 -50.9 174.21)" class="F"/><circle cx="251.1" cy="159.21" r="21.87" class="G"/><circle cx="258.09" cy="152.23" r="21.87" transform="matrix(.811268 -.584675 .584675 .811268 -40.29 179.64)" class="H"/><circle cx="124.1" cy="287.08" r="21.87" transform="matrix(.634056 -.773287 .773287 .634056 -176.59 201.04)" class="E"/><circle cx="117.11" cy="294.06" r="21.87" transform="matrix(.707107 -.707107 .707107 .707107 -173.63 168.94)" class="F"/><circle cx="110.38" cy="300.79" r="21.87" transform="matrix(.707107 -.707107 .707107 .707107 -180.36 166.15)" class="G"/><circle cx="103.4" cy="307.77" r="21.87" transform="matrix(.707107 -.707107 .707107 .707107 -187.35 163.26)" class="H"/><circle cx="124.09" cy="172.92" r="21.87" class="E"/><circle cx="117.11" cy="165.94" r="21.87" class="F"/><circle cx="110.37" cy="159.21" r="21.87" class="G"/><circle cx="103.4" cy="152.22" r="21.87" class="H"/><circle cx="237.39" cy="287.07" r="21.87" transform="matrix(.707107 -.707107 .707107 .707107 -133.46 251.94)" class="E"/><circle cx="244.37" cy="294.06" r="21.87" class="F"/><circle cx="251.11" cy="300.79" r="21.87" class="G"/><circle cx="258.09" cy="307.78" r="21.87" class="H"/><circle cx="180.44" cy="149.59" r="21.87" class="E"/><circle cx="180.44" cy="139.71" r="21.87" class="F"/><circle cx="180.44" cy="130.19" r="21.87" class="G"/><circle cx="180.44" cy="120.31" r="21.87" class="H"/><circle cx="181.05" cy="310.41" r="21.87" class="E"/><circle cx="181.05" cy="320.29" r="21.87" class="F"/><circle cx="181.05" cy="329.81" r="21.87" class="G"/><circle cx="181.05" cy="339.69" r="21.87" class="H"/><circle cx="100.33" cy="229.7" r="21.87" class="E"/><circle cx="90.45" cy="229.7" r="21.87" class="F"/><circle cx="80.93" cy="229.7" r="21.87" class="G"/><circle cx="71.05" cy="229.7" r="21.87" class="H"/><circle cx="261.16" cy="230.3" r="21.87" class="E"/><circle cx="271.03" cy="230.3" r="21.87" class="F"/><circle cx="280.55" cy="230.3" r="21.87" class="G"/><circle cx="290.43" cy="230.3" r="21.87" class="H"/></svg>