<?xml version="1.0" encoding="UTF-8"?>
<svg version="1.1" xmlns="http://www.w3.org/2000/svg" width="840" height="296">
<path d="M0 0 C277.2 0 554.4 0 840 0 C840 97.68 840 195.36 840 296 C562.8 296 285.6 296 0 296 C0 198.32 0 100.64 0 0 Z " fill="#020202" transform="translate(0,0)"/>
<path d="M0 0 C8.81926775 7.88834504 13.53493809 18.30237953 14.2890625 29.9765625 C14.8270783 44.09336341 13.41948299 56.73186699 3.80859375 67.8515625 C-5.88815325 77.68543522 -17.37663599 81.84828505 -31.125 82.125 C-43.95187765 82.15339899 -54.3271121 77.83790064 -63.875 69.375 C-74.2422328 57.56787375 -76.97644708 44.26953922 -76.125 28.8125 C-74.64767478 16.99389828 -68.67096234 5.67651534 -59.2578125 -1.76171875 C-40.49278309 -14.30610654 -18.20814609 -12.74570226 0 0 Z " fill="#828282" transform="translate(311.125,40.1875)"/>
<path d="M0 0 C8.229375 -0.0825 16.45875 -0.165 24.9375 -0.25 C28.80843384 -0.30462402 28.80843384 -0.30462402 32.75756836 -0.36035156 C34.82665172 -0.37204532 36.89574435 -0.38223551 38.96484375 -0.390625 C40.01998169 -0.41108887 41.07511963 -0.43155273 42.16223145 -0.45263672 C51.41715266 -0.45696195 58.87533009 2.2523932 66.13671875 8.05859375 C71.63121503 13.78346723 74.34382273 20.68953639 74.625 28.5625 C74.12557184 37.44594551 72.20641666 44.4058039 65.5625 50.5625 C61.18664679 54.22299633 57.76468465 56 52 56 C57.93602752 63.52923203 57.93602752 63.52923203 64.5 70.5 C75.81408776 81.44226328 75.81408776 81.44226328 78 88 C61.59526743 90.20801485 61.59526743 90.20801485 55.97021484 86.75341797 C51.5864373 82.79025101 48.31048868 77.85939206 45 73 C38.6382219 63.07894648 38.6382219 63.07894648 28.69140625 57.90625 C24.68900547 57.44954551 21.13069437 57.78634339 17 58 C17 67.9 17 77.8 17 88 C11.39 88 5.78 88 0 88 C0 58.96 0 29.92 0 0 Z " fill="#7F7F7F" transform="translate(335,32)"/>
<path d="M0 0 C13 0 13 0 17.0625 3.5 C18.41305698 5.30548143 19.72008886 7.14376865 21 9 C21.92797778 10.25028163 22.86200485 11.4960873 23.80078125 12.73828125 C25.35319437 14.79268124 26.90201184 16.84893556 28.43554688 18.91748047 C32.27513062 24.09608886 36.30064168 29.04566396 40.46875 33.96484375 C43.90721328 38.08781592 47.21076765 42.3107614 50.51000977 46.54541016 C52.64469155 49.36777301 52.64469155 49.36777301 55 52 C55.33 34.84 55.66 17.68 56 0 C61.61 0 67.22 0 73 0 C73 29.04 73 58.08 73 88 C62 88 62 88 58.65234375 85.17578125 C57.71177524 83.91380324 56.80780647 82.62392071 55.9375 81.3125 C55.44419189 80.63493652 54.95088379 79.95737305 54.44262695 79.25927734 C53.42912277 77.86552605 52.4292626 76.46174999 51.44335938 75.04833984 C49.29171909 71.99484492 46.98673361 69.06778949 44.6875 66.125 C43.86715208 65.05571229 43.04809675 63.98543142 42.23046875 62.9140625 C40.3317563 60.43343292 38.421266 57.96316154 36.5 55.5 C33.63431709 51.8213574 30.78269258 48.1320038 27.9375 44.4375 C27.14214844 43.40496094 26.34679687 42.37242188 25.52734375 41.30859375 C22.66147855 37.55683514 19.83266577 33.77688769 17 30 C16.67 49.14 16.34 68.28 16 88 C10.72 88 5.44 88 0 88 C0 58.96 0 29.92 0 0 Z " fill="#878787" transform="translate(641,32)"/>
<path d="M0 0 C5.61 0 11.22 0 17 0 C17 12.21 17 24.42 17 37 C31.19 37 45.38 37 60 37 C60 24.79 60 12.58 60 0 C65.61 0 71.22 0 77 0 C77 29.04 77 58.08 77 88 C71.39 88 65.78 88 60 88 C60 76.12 60 64.24 60 52 C45.48 52 30.96 52 16 52 C16 63.88 16 75.76 16 88 C10.72 88 5.44 88 0 88 C0 58.96 0 29.92 0 0 Z " fill="#8B8B8B" transform="translate(147,32)"/>
<path d="M0 0 C22.11 0 44.22 0 67 0 C67 8.60658158 66.70546612 10.63418814 61.6875 16.5625 C60.57390593 17.95861578 59.46329989 19.35711939 58.35546875 20.7578125 C57.50927979 21.81403809 57.50927979 21.81403809 56.64599609 22.89160156 C54.11146407 26.13814836 51.80308983 29.52468585 49.5 32.9375 C48.59567069 34.26734796 47.69071722 35.59677168 46.78515625 36.92578125 C46.33156738 37.59174316 45.87797852 38.25770508 45.41064453 38.94384766 C42.95223829 42.52721514 40.44598206 46.0765836 37.9375 49.625 C37.26847656 50.57234009 37.26847656 50.57234009 36.5859375 51.53881836 C31.74788293 58.37636094 26.86856873 65.18400378 22 72 C36.85 72 51.7 72 67 72 C67 77.28 67 82.56 67 88 C44.23 88 21.46 88 -2 88 C-2 78.84381638 -1.93357931 76.44876654 3.1875 70 C3.99574219 68.92105469 3.99574219 68.92105469 4.8203125 67.8203125 C5.95778837 66.30192669 7.10430056 64.79027268 8.25927734 63.28515625 C11.08272554 59.578638 13.78370723 55.78531455 16.5 52 C17.5869487 50.4984873 18.67418835 48.99718518 19.76171875 47.49609375 C23.44759854 42.39265321 27.0775402 37.25032509 30.69140625 32.09570312 C34.7295284 26.34602058 38.86510305 20.6854833 43 15 C28.81 15 14.62 15 0 15 C0 10.05 0 5.1 0 0 Z " fill="#8D8D8D" transform="translate(458,32)"/>
<path d="M0 0 C0.94166016 -0.00322266 1.88332031 -0.00644531 2.85351562 -0.00976562 C14.4637869 0.0791091 25.52839375 3.35639563 34.21484375 11.40625 C44.15945927 22.4107225 48.76839539 34.60276059 48.32421875 49.3984375 C47.64817524 56.24081725 46.28910877 62.83715321 43.9375 69.3125 C43.67026123 70.04936035 43.40302246 70.7862207 43.12768555 71.54541016 C41.96799141 74.02252779 41.03379787 75.54136953 38.9375 77.3125 C34.63203915 78.30077027 30.51304748 78.06816215 26.125 77.8125 C24.95517578 77.77640625 23.78535156 77.7403125 22.58007812 77.703125 C19.69588169 77.60894716 16.81836549 77.47757439 13.9375 77.3125 C16.38950191 75.32637846 18.79024637 73.40821486 21.4375 71.6875 C26.97652694 66.4254244 29.70418953 59.02634378 30.17578125 51.51953125 C30.38132997 43.34036629 30.51114166 36.41210715 25.9375 29.3125 C25.56367187 28.66925781 25.18984375 28.02601562 24.8046875 27.36328125 C20.75651294 20.96931017 15.12915864 18.37352412 7.9375 16.3125 C-2.57873269 15.25224676 -10.38340355 16.58409111 -18.8125 22.9375 C-24.80772948 28.41686089 -27.59843894 36.07089233 -28.30078125 44.00390625 C-28.57717749 54.69607639 -26.41025182 63.69167673 -18.94140625 71.59375 C-16.7412277 73.60638735 -14.39094221 75.44974623 -12.0625 77.3125 C-20.3125 77.3125 -28.5625 77.3125 -37.0625 77.3125 C-39.66671346 72.75512645 -41.59960131 69.3318154 -43.25 64.5625 C-43.73533203 63.17804688 -43.73533203 63.17804688 -44.23046875 61.765625 C-48.53471409 49.07517396 -46.48228986 35.49206355 -40.7421875 23.5703125 C-34.62860616 12.5792291 -25.57477844 4.7862592 -13.61547852 0.92553711 C-9.09186317 -0.1607016 -4.62866452 -0.07953032 0 0 Z " fill="#878787" transform="translate(583.0625,42.6875)"/>
<path d="M0 0 C6.09323537 5.87561982 9.90600511 11.76424307 10.43359375 20.3671875 C10.45729015 21.86960537 10.45810374 23.37253654 10.4375 24.875 C10.42847656 25.66438965 10.41945313 26.4537793 10.41015625 27.26708984 C10.1528803 35.95193967 8.16279776 41.99810144 2.1875 48.4375 C-4.82022583 54.8981543 -12.74864579 56.3820153 -22.08203125 56.28125 C-29.51803546 55.5645267 -35.11292425 52.62754177 -40 47 C-40.99 46.34 -41.98 45.68 -43 45 C-44.1328125 42.79296875 -44.1328125 42.79296875 -45.125 40.1875 C-45.45757812 39.33542969 -45.79015625 38.48335937 -46.1328125 37.60546875 C-49.44370489 27.65787766 -48.66425573 18.64198889 -44.6171875 9.02734375 C-40.8372107 1.95130021 -35.5959899 -2.56355041 -28 -5 C-18.55233359 -7.7348508 -7.85389095 -5.99375888 0 0 Z " fill="#020202" transform="translate(299,51)"/>
<path d="M0 0 C214.5 0 429 0 650 0 C650 1.32 650 2.64 650 4 C435.5 4 221 4 0 4 C0 2.68 0 1.36 0 0 Z " fill="#929292" transform="translate(106,224)"/>
<path d="M0 0 C5.28 0 10.56 0 16 0 C16 29.04 16 58.08 16 88 C10.72 88 5.44 88 0 88 C0 58.96 0 29.92 0 0 Z " fill="#8C8C8C" transform="translate(426,32)"/>
<path d="M0 0 C4.640625 -0.061875 9.28125 -0.12375 14.0625 -0.1875 C16.23791382 -0.22846802 16.23791382 -0.22846802 18.45727539 -0.27026367 C30.46535961 -0.34782127 30.46535961 -0.34782127 36 3 C39.4748107 6.56390841 40.32612545 9.59573229 40.625 14.4375 C40.43627605 19.38476361 39.22634573 22.05932433 35.8984375 25.66015625 C31.39565236 28.83804782 26.66401146 29.24462396 21.2890625 29.1953125 C19.60611084 29.18781982 19.60611084 29.18781982 17.88916016 29.18017578 C15.77840088 29.15286377 15.77840088 29.15286377 13.625 29.125 C9.12875 29.08375 4.6325 29.0425 0 29 C0 19.43 0 9.86 0 0 Z " fill="#040404" transform="translate(352,47)"/>
<path d="M0 0 C3.50625 -0.0825 7.0125 -0.165 10.625 -0.25 C11.71893066 -0.28641602 12.81286133 -0.32283203 13.93994141 -0.36035156 C19.97983779 -0.42904971 23.416524 -0.04030433 28 4 C31.10432211 7.62170912 31.62813077 11.06634114 31.49609375 15.7109375 C30.62408526 19.73453573 28.04201594 22.35202757 25 25 C22.59940183 26.20029908 21.10639351 26.11459743 18.4296875 26.09765625 C17.53378906 26.09443359 16.63789063 26.09121094 15.71484375 26.08789062 C14.77769531 26.07951172 13.84054688 26.07113281 12.875 26.0625 C11.93011719 26.05798828 10.98523438 26.05347656 10.01171875 26.04882812 C7.6744523 26.03702375 5.33721831 26.01908799 3 26 C3 30.62 3 35.24 3 40 C2.01 40 1.02 40 0 40 C0 26.8 0 13.6 0 0 Z " fill="#090909" transform="translate(206,148)"/>
<path d="M0 0 C1.32 0 2.64 0 4 0 C5.77834896 3.96516484 7.55649793 7.93041929 9.33447266 11.89575195 C9.93760964 13.24082786 10.54079846 14.58588052 11.14404297 15.9309082 C11.43553223 16.5808374 11.72702148 17.2307666 12.02734375 17.90039062 C12.31605347 18.544086 12.60476318 19.18778137 12.90222168 19.85098267 C13.75291475 21.74898558 14.60206111 23.64767552 15.45117188 25.54638672 C16.39918084 27.66027935 17.35236277 29.77187343 18.31445312 31.87939453 C18.67990234 32.6836084 19.04535156 33.48782227 19.421875 34.31640625 C19.7322168 34.9926001 20.04255859 35.66879395 20.36230469 36.36547852 C21 38 21 38 21 40 C20.01 40 19.02 40 18 40 C17.32845067 38.71086513 16.66291141 37.41859796 16 36.125 C15.62875 35.40570313 15.2575 34.68640625 14.875 33.9453125 C14 32 14 32 14 30 C6.08 30.33 -1.84 30.66 -10 31 C-11.32 33.97 -12.64 36.94 -14 40 C-14.99 40 -15.98 40 -17 40 C-16.3466314 35.77682704 -14.92143149 32.26509185 -13.1640625 28.37890625 C-12.88404388 27.75652573 -12.60402527 27.1341452 -12.31552124 26.49290466 C-11.42350886 24.51388104 -10.52423135 22.53825214 -9.625 20.5625 C-9.02819757 19.23913435 -8.4318391 17.9155684 -7.8359375 16.59179688 C-5.31641334 11.01187696 -2.7677249 5.46250602 0 0 Z " fill="#B7B7B7" transform="translate(304,148)"/>
<path d="M0 0 C3.12578143 1.6720747 5.39281175 3.7856235 7 7 C7.58438963 11.92556974 7.58569025 14.89544452 4.5625 18.9375 C1.40573993 22.20646718 -1.40071132 23.04506832 -5.88671875 23.2109375 C-8.90423929 22.90974321 -10.67565488 21.91416657 -13 20 C-13.52980469 19.57976563 -14.05960938 19.15953125 -14.60546875 18.7265625 C-17.04639564 15.70446255 -16.45707821 12.40400661 -16.36328125 8.671875 C-15.88202591 5.13231958 -14.65941507 3.34654271 -12 1 C-8.27533151 -0.86233425 -4.05504687 -0.57130829 0 0 Z " fill="#888888" transform="translate(742,13)"/>
<path d="M0 0 C5 1 5 1 6.43798828 2.51879883 C6.81165527 3.15841553 7.18532227 3.79803223 7.5703125 4.45703125 C7.99183594 5.15763672 8.41335938 5.85824219 8.84765625 6.58007812 C9.26917969 7.31677734 9.69070313 8.05347656 10.125 8.8125 C10.98035198 10.25735132 11.83708386 11.70138678 12.6953125 13.14453125 C13.09137695 13.82080566 13.48744141 14.49708008 13.89550781 15.19384766 C15.04736028 17.14400839 15.04736028 17.14400839 16.8046875 19.38671875 C18 21 18 21 18 23 C18.66 23 19.32 23 20 23 C20.3403125 21.99839844 20.3403125 21.99839844 20.6875 20.9765625 C22.38277617 17.13191834 24.6343359 13.83562863 27 10.375 C27.45117188 9.70726562 27.90234375 9.03953125 28.3671875 8.3515625 C29.20490774 7.11233138 30.04452746 5.8743805 30.88671875 4.63818359 C31.93333191 3.09810151 32.96711727 1.5493241 34 0 C35.32 0 36.64 0 38 0 C38 13.2 38 26.4 38 40 C37.01 40 36.02 40 35 40 C34.67 29.11 34.34 18.22 34 7 C29.47506193 13.90617185 29.47506193 13.90617185 24.96533203 20.82226562 C24.40185059 21.67498047 23.83836914 22.52769531 23.2578125 23.40625 C22.6817627 24.28603516 22.10571289 25.16582031 21.51220703 26.07226562 C21.01317871 26.70841797 20.51415039 27.34457031 20 28 C19.34 28 18.68 28 18 28 C16.59545898 26.19580078 16.59545898 26.19580078 14.99609375 23.6953125 C14.42052734 22.80199219 13.84496094 21.90867188 13.25195312 20.98828125 C12.65318359 20.04339844 12.05441406 19.09851563 11.4375 18.125 C10.83486328 17.18785156 10.23222656 16.25070313 9.61132812 15.28515625 C5.20746971 8.41493941 5.20746971 8.41493941 4 6 C3.67 17.22 3.34 28.44 3 40 C2.01 40 1.02 40 0 40 C0 26.8 0 13.6 0 0 Z " fill="#BBBBBB" transform="translate(428,148)"/>
<path d="M0 0 C3.89249496 1.94624748 4.92725098 2.82645451 7.4375 6.125 C8.12070312 7.00671875 8.80390625 7.8884375 9.5078125 8.796875 C9.89356445 9.29638672 10.27931641 9.79589844 10.67675781 10.31054688 C13.33687609 13.70686024 16.08319404 17.03424752 18.8125 20.375 C19.92401674 21.736294 21.03473504 23.09824046 22.14453125 24.4609375 C22.62253174 25.04665527 23.10053223 25.63237305 23.59301758 26.23583984 C25.10106893 28.12672637 26.54883445 30.0651126 28 32 C28.33 21.44 28.66 10.88 29 0 C29.99 0 30.98 0 32 0 C32 13.2 32 26.4 32 40 C28.43621097 38.21810548 27.37601792 37.59247317 25.08203125 34.69140625 C24.55391846 34.03148682 24.02580566 33.37156738 23.48168945 32.69165039 C22.93085693 31.98903076 22.38002441 31.28641113 21.8125 30.5625 C20.65631309 29.11453296 19.50006275 27.66661655 18.34375 26.21875 C17.77785156 25.50460938 17.21195313 24.79046875 16.62890625 24.0546875 C14.37366771 21.20995016 12.0983587 18.38271528 9.8125 15.5625 C9.11769531 14.69753906 8.42289063 13.83257812 7.70703125 12.94140625 C6.13928459 10.91281097 6.13928459 10.91281097 4 10 C4 19.9 4 29.8 4 40 C2.68 40 1.36 40 0 40 C0 26.8 0 13.6 0 0 Z " fill="#A5A5A5" transform="translate(527,148)"/>
<path d="M0 0 C0.91072266 0.00128906 1.82144531 0.00257813 2.75976562 0.00390625 C9.51527256 0.09351504 9.51527256 0.09351504 12.9375 2.375 C13.125 5.5 13.125 5.5 12.9375 8.375 C11.9475 8.705 10.9575 9.035 9.9375 9.375 C11.9175 12.345 11.9175 12.345 13.9375 15.375 C12.6175 15.375 11.2975 15.375 9.9375 15.375 C8.91721135 14.05712715 7.91778616 12.72289347 6.9375 11.375 C4.84334196 10.57876178 4.84334196 10.57876178 2.9375 10.375 C2.9375 12.025 2.9375 13.675 2.9375 15.375 C2.31875 15.189375 1.7 15.00375 1.0625 14.8125 C-1.10410178 14.13813824 -1.10410178 14.13813824 -3.0625 15.375 C-6.89864957 15.73019903 -9.20879634 15.92224594 -12.5 13.8125 C-14.66646028 10.43282196 -14.62538002 8.31516013 -14.0625 4.375 C-10.63519177 -0.99031261 -5.72642991 -0.15465838 0 0 Z " fill="#101010" transform="translate(338.0625,249.625)"/>
<path d="M0 0 C9.24 0 18.48 0 28 0 C28 0.99 28 1.98 28 3 C19.75 3 11.5 3 3 3 C3 8.28 3 13.56 3 19 C10.59 19 18.18 19 26 19 C26 19.99 26 20.98 26 22 C18.41 22 10.82 22 3 22 C3 26.95 3 31.9 3 37 C11.25 37 19.5 37 28 37 C28 37.99 28 38.98 28 40 C18.76 40 9.52 40 0 40 C0 26.8 0 13.6 0 0 Z " fill="#BCBCBC" transform="translate(483,148)"/>
<path d="M0 0 C3.1461272 1.71070666 4.41595558 2.76739799 5.5625 6.20703125 C3.43551442 5.75124863 1.71186119 5.29429846 -0.17578125 4.19140625 C-3.15484545 2.89481872 -5.63361625 2.86950389 -8.875 2.83203125 C-9.98746094 2.80367187 -11.09992187 2.7753125 -12.24609375 2.74609375 C-16.09095747 3.30141066 -17.72273098 4.47729108 -20.4375 7.20703125 C-21.18771244 9.75070793 -21.18771244 9.75070793 -20.4375 12.20703125 C-16.510772 16.19463876 -11.08768407 16.5305654 -5.8125 17.4921875 C-0.40927851 18.60910784 2.73671372 20.16041176 6.5625 24.20703125 C7.60146379 27.31859462 7.33965796 30.03507542 6.5625 33.20703125 C3.9879997 36.56818443 1.45369701 38.61580962 -2.4375 40.20703125 C-9.02654193 41.01654212 -15.06137911 40.80409514 -20.87890625 37.4296875 C-23.09434145 35.69176465 -24.30326633 33.75905701 -25.4375 31.20703125 C-20.68641067 31.20703125 -19.93278898 32.24947904 -16.4375 35.20703125 C-11.50864435 36.84998313 -6.47696923 36.81453272 -1.5 35.33203125 C0.69946824 34.2581739 0.69946824 34.2581739 2.5625 32.20703125 C3.07051797 28.1202788 3.07051797 28.1202788 1.29858398 24.59790039 C-0.65507869 23.0327174 -2.11029299 22.50437944 -4.52734375 21.890625 C-5.70393555 21.5802832 -5.70393555 21.5802832 -6.90429688 21.26367188 C-7.71962891 21.05935547 -8.53496094 20.85503906 -9.375 20.64453125 C-10.98926713 20.23038647 -12.60258895 19.81253581 -14.21484375 19.390625 C-14.92890381 19.21072021 -15.64296387 19.03081543 -16.37866211 18.84545898 C-20.34634831 17.61511398 -22.07899819 16.74478397 -24.4375 13.20703125 C-24.89431807 9.0956686 -24.89481782 6.94200632 -22.6875 3.39453125 C-16.79677406 -2.33256341 -7.61795641 -2.47827749 0 0 Z " fill="#B0B0B0" transform="translate(640.4375,148.79296875)"/>
<path d="M0 0 C9.24 0 18.48 0 28 0 C28 0.99 28 1.98 28 3 C19.75 3 11.5 3 3 3 C3 8.28 3 13.56 3 19 C10.59 19 18.18 19 26 19 C26 19.66 26 20.32 26 21 C18.41 21 10.82 21 3 21 C3 26.28 3 31.56 3 37 C11.25 37 19.5 37 28 37 C28 37.99 28 38.98 28 40 C18.76 40 9.52 40 0 40 C0 26.8 0 13.6 0 0 Z " fill="#C7C7C7" transform="translate(385,148)"/>
<path d="M0 0 C3.50625 -0.0825 7.0125 -0.165 10.625 -0.25 C11.71893066 -0.28641602 12.81286133 -0.32283203 13.93994141 -0.36035156 C19.97983779 -0.42904971 23.416524 -0.04030433 28 4 C31.10432211 7.62170912 31.62813077 11.06634114 31.49609375 15.7109375 C30.62408526 19.73453573 28.04201594 22.35202757 25 25 C22.59940183 26.20029908 21.10639351 26.11459743 18.4296875 26.09765625 C17.53378906 26.09443359 16.63789063 26.09121094 15.71484375 26.08789062 C14.77769531 26.07951172 13.84054688 26.07113281 12.875 26.0625 C11.93011719 26.05798828 10.98523438 26.05347656 10.01171875 26.04882812 C7.6744523 26.03702375 5.33721831 26.01908799 3 26 C3 30.62 3 35.24 3 40 C2.01 40 1.02 40 0 40 C0 26.8 0 13.6 0 0 Z M3 3 C3 9.93 3 16.86 3 24 C7.269375 24.1546875 7.269375 24.1546875 11.625 24.3125 C12.51010254 24.35802002 13.39520508 24.40354004 14.30712891 24.45043945 C18.46058651 24.52288892 21.20697917 24.31142194 24.5234375 21.66796875 C27.44724638 18.51818725 27.90495438 16.85541058 28.375 12.625 C28.32288226 8.85005616 28.32288226 8.85005616 25.625 6.125 C22.37174443 3.49141216 20.94027777 2.87366002 16.8671875 2.90234375 C16.14128418 2.90484131 15.41538086 2.90733887 14.66748047 2.90991211 C13.74596191 2.91901611 12.82444336 2.92812012 11.875 2.9375 C7.481875 2.9684375 7.481875 2.9684375 3 3 Z " fill="#B7B7B7" transform="translate(206,148)"/>
<path d="M0 0 C2.40576496 2.17764314 3.72931192 4.16703577 5.04296875 7.125 C5.39423828 7.91390625 5.74550781 8.7028125 6.10742188 9.515625 C6.64206055 10.74539062 6.64206055 10.74539062 7.1875 12 C7.55552734 12.81984375 7.92355469 13.6396875 8.30273438 14.484375 C11 20.60951994 11 20.60951994 11 24 C4.07 24 -2.86 24 -10 24 C-8.0094197 18.02825911 -6.01941634 12.54912406 -3.3125 6.9375 C-2.99216797 6.26267578 -2.67183594 5.58785156 -2.34179688 4.89257812 C-1.56580539 3.25952141 -0.78358474 1.62942689 0 0 Z " fill="#0E0E0E" transform="translate(305,152)"/>
<path d="M0 0 C3.3125 2.1875 3.3125 2.1875 4.3125 5.1875 C2.18471945 4.73154703 0.45967954 4.27329973 -1.4296875 3.171875 C-6.17240458 1.104116 -11.63195751 1.67817296 -16.6875 2.1875 C-21.20238603 4.28925729 -23.78241762 6.5751953 -25.6875 11.1875 C-26.90314751 17.14417279 -27.28643929 22.55646488 -24.6875 28.1875 C-20.36003921 32.99337354 -16.80542188 34.95218514 -10.375 35.4375 C-6.04698705 35.14407539 -3.57220336 34.05514585 0.3125 32.1875 C1.7975 31.6925 1.7975 31.6925 3.3125 31.1875 C3.6425 32.1775 3.9725 33.1675 4.3125 34.1875 C-2.04483624 37.97745045 -7.059718 40.30884915 -14.6875 39.1875 C-21.24644183 37.0511019 -25.48029274 34.20401126 -28.84765625 28.15234375 C-31.04886338 23.00254287 -31.41911102 17.71615147 -30.6875 12.1875 C-28.41199243 6.52815574 -24.57231643 2.69182483 -19.6875 -0.8125 C-13.37992935 -2.91502355 -6.04872893 -2.87095467 0 0 Z " fill="#B4B4B4" transform="translate(364.6875,149.8125)"/>
<path d="M0 0 C2.64 0 5.28 0 8 0 C8 29.04 8 58.08 8 88 C-3 88 -3 88 -6.48046875 84.9375 C-7.419235 83.65079941 -8.3216433 82.33685178 -9.1875 81 C-9.66251953 80.33226563 -10.13753906 79.66453125 -10.62695312 78.9765625 C-11.78399402 77.34034305 -12.89677433 75.67297664 -14 74 C-13.505 73.01 -13.505 73.01 -13 72 C-7.30227273 75.22045455 -7.30227273 75.22045455 -5.8125 79.0625 C-5.544375 80.031875 -5.27625 81.00125 -5 82 C-3.98029682 83.93654948 -3.98029682 83.93654948 -2 85 C0.64 85.33 3.28 85.66 6 86 C6 57.95 6 29.9 6 1 C4.02 1 2.04 1 0 1 C0 0.67 0 0.34 0 0 Z " fill="#919191" transform="translate(706,32)"/>
<path d="M0 0 C3 0.75 3 0.75 6 2.75 C6.33 2.09 6.66 1.43 7 0.75 C8.60332791 0.66878076 10.20784026 0.61070866 11.8125 0.5625 C13.15248047 0.51029297 13.15248047 0.51029297 14.51953125 0.45703125 C17 0.75 17 0.75 18.8046875 2.1015625 C20.47948435 4.41124965 20.35691675 5.96604938 20 8.75 C18 10.75 18 10.75 16.0546875 10.9453125 C14.03645833 10.88020833 12.01822917 10.81510417 10 10.75 C10 10.42 10 10.09 10 9.75 C12.31 9.75 14.62 9.75 17 9.75 C16.67 7.77 16.34 5.79 16 3.75 C13.69 3.09 11.38 2.43 9 1.75 C9.495 8.68 9.495 8.68 10 15.75 C9.01 15.75 8.02 15.75 7 15.75 C6.67 14.76 6.34 13.77 6 12.75 C5.67 13.245 5.34 13.74 5 14.25 C1.82427253 16.63179561 -1.10246066 15.94168226 -5 15.75 C-5.66 14.43 -6.32 13.11 -7 11.75 C-3.7 12.08 -0.4 12.41 3 12.75 C2.67 11.76 2.34 10.77 2 9.75 C-0.31029085 9.00740651 -2.645752 8.338562 -5 7.75 C-6 6.75 -6 6.75 -6.25 4.3125 C-6.1675 3.466875 -6.085 2.62125 -6 1.75 C-3 -0.25 -3 -0.25 0 0 Z " fill="#282828" transform="translate(186,249.25)"/>
<path d="M0 0 C10.56 0 21.12 0 32 0 C32 0.99 32 1.98 32 3 C27.05 3 22.1 3 17 3 C17 15.21 17 27.42 17 40 C16.01 40 15.02 40 14 40 C14 27.79 14 15.58 14 3 C9.38 3 4.76 3 0 3 C0 2.01 0 1.02 0 0 Z " fill="#B6B6B6" transform="translate(573,148)"/>
<path d="M0 0 C4.04375441 0.92669372 5.54853142 2.37080721 8 5.6875 C8.71588388 9.50554737 8.29055839 11.15287255 6.4375 14.5625 C4 16.6875 4 16.6875 0.5 17.25 C-3 16.6875 -3 16.6875 -5.375 15.0625 C-7.43188056 12.05628996 -8.0732472 10.3498602 -8 6.6875 C-5.70291401 2.92863201 -4.36484817 1.00027771 0 0 Z " fill="#161616" transform="translate(737,15.3125)"/>
<path d="M0 0 C3 2.125 3 2.125 5 5 C4.92093582 8.95320924 4.20236257 10.69645615 2 14 C-0.98009687 14.96076482 -3.88007925 15.1717896 -7 15 C-9.5625 13.5 -9.5625 13.5 -11 11 C-11.56288002 7.05983987 -11.60396028 4.94217804 -9.4375 1.5625 C-6.01685857 -0.63021887 -3.99048721 -0.63007693 0 0 Z " fill="#373737" transform="translate(665,250)"/>
<path d="M0 0 C3 2.0625 3 2.0625 5 5 C5.06641554 8.85210127 4.87229157 10.99848005 2.3125 13.9375 C-0.7864448 15.3613395 -2.62182812 15.55153827 -6 15 C-8.9375 12.9375 -8.9375 12.9375 -11 10 C-11 6.45638757 -10.65850044 4.13408409 -8.875 1.0625 C-5.76581435 -0.69937187 -3.49155423 -0.48159369 0 0 Z " fill="#393939" transform="translate(586,250)"/>
<path d="M0 0 C2.5 2.0625 2.5 2.0625 4 5 C3.93977486 8.49305789 3.63658168 10.90366489 1.875 13.9375 C-1.18452459 15.6712306 -3.56817525 15.42145216 -7 15 C-9.4375 13.4375 -9.4375 13.4375 -11 11 C-11.56288002 7.05983987 -11.60396028 4.94217804 -9.4375 1.5625 C-6.03280512 -0.61999672 -3.96569988 -0.63734462 0 0 Z " fill="#C3C3C3" transform="translate(173,250)"/>
<path d="M0 0 C0.99 0 1.98 0 3 0 C3 12.21 3 24.42 3 37 C10.26 37 17.52 37 25 37 C25 37.99 25 38.98 25 40 C16.75 40 8.5 40 0 40 C0 26.8 0 13.6 0 0 Z " fill="#B9B9B9" transform="translate(251,148)"/>
<path d="M0 0 C8.625 -0.25 8.625 -0.25 12 2 C12.1875 5.125 12.1875 5.125 12 8 C11.01 8.33 10.02 8.66 9 9 C10.98 11.97 10.98 11.97 13 15 C9.66135596 14.42437172 8.30897368 13.40936384 6 11 C5.01 10.67 4.02 10.34 3 10 C3 11.65 3 13.3 3 15 C2.01 15 1.02 15 0 15 C0 10.05 0 5.1 0 0 Z " fill="#B1B1B1" transform="translate(403,250)"/>
<path d="M0 0 C8.625 -0.25 8.625 -0.25 12 2 C12.1875 5.125 12.1875 5.125 12 8 C11.01 8.33 10.02 8.66 9 9 C9.495 9.61875 9.99 10.2375 10.5 10.875 C12 13 12 13 12 15 C10.125 14.6875 10.125 14.6875 8 14 C7.34 13.01 6.68 12.02 6 11 C3.94074861 10.27617533 3.94074861 10.27617533 2 10 C2 11.65 2 13.3 2 15 C1.34 15 0.68 15 0 15 C0 10.05 0 5.1 0 0 Z " fill="#C6C6C6" transform="translate(297,250)"/>
<path d="M0 0 C8.625 -0.25 8.625 -0.25 12 2 C12.1875 5.125 12.1875 5.125 12 8 C11.01 8.33 10.02 8.66 9 9 C10.98 11.97 10.98 11.97 13 15 C11.68 15 10.36 15 9 15 C7.97971135 13.68212715 6.98028616 12.34789347 6 11 C3.90584196 10.20376178 3.90584196 10.20376178 2 10 C2 11.65 2 13.3 2 15 C1.34 15 0.68 15 0 15 C0 10.05 0 5.1 0 0 Z " fill="#CACACA" transform="translate(339,250)"/>
<path d="M0 0 C2.56236973 2.28702434 3.86658789 4.47237649 5.26171875 7.59765625 C5.65810547 8.48130859 6.05449219 9.36496094 6.46289062 10.27539062 C7.06907227 11.65500977 7.06907227 11.65500977 7.6875 13.0625 C8.31108398 14.44791992 8.31108398 14.44791992 8.94726562 15.86132812 C12 22.72371459 12 22.72371459 12 25 C11.01 25 10.02 25 9 25 C8.32845067 23.71086513 7.66291141 22.41859796 7 21.125 C6.62875 20.40570313 6.2575 19.68640625 5.875 18.9453125 C5 17 5 17 5 15 C-2.92 15 -10.84 15 -19 15 C-18.67 14.34 -18.34 13.68 -18 13 C-11.07 13 -4.14 13 3 13 C1.9790625 10.6178125 1.9790625 10.6178125 0.9375 8.1875 C-1.125 3.375 -1.125 3.375 0 0 Z " fill="#C7C7C7" transform="translate(313,163)"/>
<path d="M0 0 C2.32421875 0.1640625 2.32421875 0.1640625 5 1 C6.58203125 3.3984375 6.58203125 3.3984375 7.8125 6.375 C8.44091797 7.84066406 8.44091797 7.84066406 9.08203125 9.3359375 C10 12 10 12 10 15 C9.01 15 8.02 15 7 15 C7 14.01 7 13.02 7 12 C4.03 12 1.06 12 -2 12 C-2.33 12.99 -2.66 13.98 -3 15 C-3.66 15 -4.32 15 -5 15 C-4.37321829 11.33827525 -3.35548154 8.1181005 -1.9375 4.6875 C-1.39416016 3.36298828 -1.39416016 3.36298828 -0.83984375 2.01171875 C-0.56269531 1.34785156 -0.28554687 0.68398437 0 0 Z " fill="#C0C0C0" transform="translate(232,250)"/>
<path d="M0 0 C1.423125 -0.061875 2.84625 -0.12375 4.3125 -0.1875 C5.51326172 -0.23970703 5.51326172 -0.23970703 6.73828125 -0.29296875 C9 0 9 0 10.8046875 1.3515625 C12 3 12 3 11.8125 5.5625 C11 8 11 8 9 10 C5.375 10.125 5.375 10.125 2 10 C2 11.65 2 13.3 2 15 C1.34 15 0.68 15 0 15 C0 10.05 0 5.1 0 0 Z " fill="#0C0C0C" transform="translate(520,250)"/>
<path d="M0 0 C3.63 0 7.26 0 11 0 C11 0.99 11 1.98 11 3 C8.36 3 5.72 3 3 3 C3 3.99 3 4.98 3 6 C5.64 6 8.28 6 11 6 C11 6.99 11 7.98 11 9 C8.36 9 5.72 9 3 9 C3 9.99 3 10.98 3 12 C5.64 12 8.28 12 11 12 C11 12.99 11 13.98 11 15 C7.37 15 3.74 15 0 15 C0 10.05 0 5.1 0 0 Z " fill="#C7C7C7" transform="translate(311,250)"/>
<path d="M0 0 C3.63 0 7.26 0 11 0 C11 0.99 11 1.98 11 3 C8.36 3 5.72 3 3 3 C3 3.99 3 4.98 3 6 C5.64 6 8.28 6 11 6 C11 6.99 11 7.98 11 9 C8.36 9 5.72 9 3 9 C3 9.99 3 10.98 3 12 C5.64 12 8.28 12 11 12 C11 12.99 11 13.98 11 15 C7.37 15 3.74 15 0 15 C0 10.05 0 5.1 0 0 Z " fill="#C8C8C8" transform="translate(389,250)"/>
<path d="M0 0 C0.99 0 1.98 0 3 0 C3 13.2 3 26.4 3 40 C2.01 39.67 1.02 39.34 0 39 C0 26.13 0 13.26 0 0 Z " fill="#B1B1B1" transform="translate(556,148)"/>
<path d="M0 0 C1.31291016 -0.03867188 1.31291016 -0.03867188 2.65234375 -0.078125 C5.4818869 0.30709643 6.31382925 1.05694757 8.0625 3.25 C5.19309681 3.92515369 2.96135742 4.24174346 0 4 C-3.10414561 3.97281787 -3.10414561 3.97281787 -5.375 6.375 C-7.33068829 9.97346644 -6.97179398 11.35150729 -5.9375 15.25 C-5.60416667 17.25 -5.27083333 19.25 -4.9375 21.25 C-7.40550047 20.09826645 -8.98533565 19.20216435 -10.9375 17.25 C-11.65155242 12.0938773 -11.7687408 7.63540133 -9.0625 3.125 C-5.92943434 0.3605303 -4.10479216 0.07233114 0 0 Z " fill="#8F8F8F" transform="translate(736.9375,12.75)"/>
<path d="M0 0 C0.99 0 1.98 0 3 0 C3 1.98 3 3.96 3 6 C5.31 6 7.62 6 10 6 C10 4.02 10 2.04 10 0 C10.99 0 11.98 0 13 0 C13 4.95 13 9.9 13 15 C12.01 15 11.02 15 10 15 C10 13.02 10 11.04 10 9 C7.69 9 5.38 9 3 9 C3 10.98 3 12.96 3 15 C2.01 15 1.02 15 0 15 C0 10.05 0 5.1 0 0 Z " fill="#BBBBBB" transform="translate(146,250)"/>
<path d="M0 0 C1.423125 -0.061875 2.84625 -0.12375 4.3125 -0.1875 C5.51326172 -0.23970703 5.51326172 -0.23970703 6.73828125 -0.29296875 C9 0 9 0 10.79296875 1.3515625 C12 3 12 3 12 5.5625 C11 8 11 8 8.75 9.375 C5.76017496 10.05450569 3.92276836 9.83507667 1 9 C1 10.98 1 12.96 1 15 C0.67 15 0.34 15 0 15 C0 10.05 0 5.1 0 0 Z " fill="#565656" transform="translate(548,250)"/>
<path d="M0 0 C0.33 0 0.66 0 1 0 C1 5.28 1 10.56 1 16 C8.59 16 16.18 16 24 16 C24 16.99 24 17.98 24 19 C16.41 19 8.82 19 1 19 C1 23.95 1 28.9 1 34 C0.67 34 0.34 34 0 34 C-0.86230656 22.53795591 -1.01427032 11.45345249 0 0 Z " fill="#A8A8A8" transform="translate(485,151)"/>
<path d="M0 0 C0.33 0.99 0.66 1.98 1 3 C-1.64 3 -4.28 3 -7 3 C-7.33 3.66 -7.66 4.32 -8 5 C-3.545 5.99 -3.545 5.99 1 7 C2.30892449 11.402746 2.30892449 11.402746 1.0625 13.8125 C-2.23218112 15.70943762 -5.24238464 15.18480076 -9 15 C-9.66 13.68 -10.32 12.36 -11 11 C-8.03 11.33 -5.06 11.66 -2 12 C-1.67 11.01 -1.34 10.02 -1 9 C-2.11375 8.87625 -3.2275 8.7525 -4.375 8.625 C-8 8 -8 8 -10 6 C-10.3125 3.5 -10.3125 3.5 -10 1 C-6.1496895 -1.56687367 -4.41430237 -0.83288724 0 0 Z " fill="#C8C8C8" transform="translate(428,250)"/>
<path d="M0 0 C9.24 0 18.48 0 28 0 C28 0.99 28 1.98 28 3 C19.75 3 11.5 3 3 3 C3 8.28 3 13.56 3 19 C2.67 19 2.34 19 2 19 C1.93941406 17.79601562 1.87882812 16.59203125 1.81640625 15.3515625 C1.73200268 13.77602923 1.64735459 12.20050904 1.5625 10.625 C1.50352539 9.43390625 1.50352539 9.43390625 1.44335938 8.21875 C1.31106596 3.97398779 1.31106596 3.97398779 0 0 Z " fill="#ABABAB" transform="translate(385,148)"/>
<path d="M0 0 C2.9375 0.6875 2.9375 0.6875 4.9375 1.6875 C4.9375 2.3475 4.9375 3.0075 4.9375 3.6875 C2.2975 3.6875 -0.3425 3.6875 -3.0625 3.6875 C-3.3925 4.3475 -3.7225 5.0075 -4.0625 5.6875 C-2.94875 5.81125 -1.835 5.935 -0.6875 6.0625 C2.9375 6.6875 2.9375 6.6875 4.9375 8.6875 C5.1875 11.1875 5.1875 11.1875 4.9375 13.6875 C2.9375 15.6875 2.9375 15.6875 0.9921875 15.8828125 C-1.02604167 15.81770833 -3.04427083 15.75260417 -5.0625 15.6875 C-5.7225 14.3675 -6.3825 13.0475 -7.0625 11.6875 C-3.7625 12.0175 -0.4625 12.3475 2.9375 12.6875 C2.6075 11.6975 2.2775 10.7075 1.9375 9.6875 C-0.37279085 8.94490651 -2.708252 8.276062 -5.0625 7.6875 C-6.0625 6.6875 -6.0625 6.6875 -6.3125 4.25 C-6.23 3.404375 -6.1475 2.55875 -6.0625 1.6875 C-3.0625 -0.3125 -3.0625 -0.3125 0 0 Z " fill="#D2D2D2" transform="translate(186.0625,249.3125)"/>
<path d="M0 0 C0.66 0 1.32 0 2 0 C2.33 3.96 2.66 7.92 3 12 C4.65 12 6.3 12 8 12 C9.73956658 10.26043342 9.37190386 7.8063378 9.5625 5.4375 C9.64628906 4.42558594 9.73007812 3.41367188 9.81640625 2.37109375 C9.87699219 1.58863281 9.93757813 0.80617187 10 0 C10.99 0 11.98 0 13 0 C13.10807131 1.93627769 13.1856225 3.87427756 13.25 5.8125 C13.29640625 6.89144531 13.3428125 7.97039062 13.390625 9.08203125 C13 12 13 12 11.17578125 13.86328125 C8.24670394 15.39355324 6.25870387 15.41600475 3 15 C1.328125 13.86328125 1.328125 13.86328125 0 12 C-0.29296875 9.08203125 -0.29296875 9.08203125 -0.1875 5.8125 C-0.16042969 4.72582031 -0.13335937 3.63914063 -0.10546875 2.51953125 C-0.07066406 1.68808594 -0.03585937 0.85664063 0 0 Z " fill="#DADADA" transform="translate(354,250)"/>
<path d="M0 0 C2.5 0.25 2.5 0.25 4.5 2.25 C4.83661952 5.4142235 4.99943411 7.43513382 3.3125 10.1875 C1.5 11.25 1.5 11.25 -1.125 11 C-3.5 10.25 -3.5 10.25 -4.5 9.25 C-4.6875 5.8125 -4.6875 5.8125 -4.5 2.25 C-2.5 0.25 -2.5 0.25 0 0 Z " fill="#111111" transform="translate(169.5,251.75)"/>
<path d="M0 0 C3 1 3 1 4.421875 3.3984375 C4.86015625 4.38070312 5.2984375 5.36296875 5.75 6.375 C6.19859375 7.35210937 6.6471875 8.32921875 7.109375 9.3359375 C8 12 8 12 7 15 C6.67 13.68 6.34 12.36 6 11 C4.56138706 11.08746284 3.12402492 11.19565348 1.6875 11.3125 C0.88699219 11.37050781 0.08648438 11.42851562 -0.73828125 11.48828125 C-3.36272334 12.08206694 -4.30820672 12.95780294 -6 15 C-4.40109514 9.80355921 -2.25861997 4.93387858 0 0 Z " fill="#6D6D6D" transform="translate(613,250)"/>
<path d="M0 0 C9.24 0 18.48 0 28 0 C28 0.99 28 1.98 28 3 C23.89584811 3.02898097 19.79172247 3.0467922 15.6875 3.0625 C14.52025391 3.07087891 13.35300781 3.07925781 12.15039062 3.08789062 C10.47299805 3.09272461 10.47299805 3.09272461 8.76171875 3.09765625 C7.2142395 3.10551147 7.2142395 3.10551147 5.63549805 3.11352539 C3 3 3 3 0 2 C0 1.34 0 0.68 0 0 Z " fill="#B3B3B3" transform="translate(483,148)"/>
<path d="M0 0 C3.09011944 2.58265114 4.21627918 5.48956659 5.6875 9.1875 C6.34298828 10.81751953 6.34298828 10.81751953 7.01171875 12.48046875 C7.33785156 13.31191406 7.66398438 14.14335937 8 15 C7.34 15 6.68 15 6 15 C5.67 13.68 5.34 12.36 5 11 C1.7 11.33 -1.6 11.66 -5 12 C-4.42365861 7.24518354 -2.44931479 4.02951788 0 0 Z " fill="#AFAFAF" transform="translate(505,250)"/>
<path d="M0 0 C0.66 0.33 1.32 0.66 2 1 C2 1.66 2 2.32 2 3 C0.72125 2.95875 -0.5575 2.9175 -1.875 2.875 C-4.01871492 2.75787127 -4.01871492 2.75787127 -6 3 C-6.66 3.66 -7.32 4.32 -8 5 C-7.67801034 8.09926819 -7.67801034 8.09926819 -7 11 C-3.71303767 11.79953138 -2.28976808 12.09658936 1 11 C1.33 11.99 1.66 12.98 2 14 C-1.09173752 15.54586876 -3.59429552 15.29359521 -7 15 C-9.4375 13.4375 -9.4375 13.4375 -11 11 C-11.56288002 7.05983987 -11.60396028 4.94217804 -9.4375 1.5625 C-6.14629634 -0.54724594 -3.83614957 -0.35519903 0 0 Z " fill="#D5D5D5" transform="translate(335,250)"/>
<path d="M0 0 C2.33294775 -0.04241723 4.66702567 -0.04092937 7 0 C8 1 8 1 8.0625 3.5625 C8.041875 4.366875 8.02125 5.17125 8 6 C7.34 6 6.68 6 6 6 C6.66 7.98 7.32 9.96 8 12 C7.34 12 6.68 12 6 12 C5.34 10.35 4.68 8.7 4 7 C3.34 7 2.68 7 2 7 C2 8.65 2 10.3 2 12 C1.34 12 0.68 12 0 12 C0 8.04 0 4.08 0 0 Z " fill="#828282" transform="translate(733,18)"/>
<path d="M0 0 C10.56 0 21.12 0 32 0 C32 0.99 32 1.98 32 3 C21.44 3 10.88 3 0 3 C0 2.01 0 1.02 0 0 Z " fill="#ABABAB" transform="translate(573,148)"/>
<path d="M0 0 C4.18181024 1.57979498 5.7058212 2.38985137 7.6875 6.5 C8.120625 7.655 8.55375 8.81 9 10 C10.06345052 11.98029682 10.06345052 11.98029682 12 13 C14.68085156 13.53723414 17.26422601 13.77575623 20 14 C20 9.38 20 4.76 20 0 C20.33 0 20.66 0 21 0 C21 5.28 21 10.56 21 16 C14.942415 17.22907522 14.942415 17.22907522 11 16 C6.51297221 12.12374965 3.14115129 6.98045661 0 2 C0 1.34 0 0.68 0 0 Z " fill="#B5B5B5" transform="translate(692,104)"/>
<path d="M0 0 C0.165 0.598125 0.33 1.19625 0.5 1.8125 C2.81276204 5.18527798 6.19891337 5.8331548 10 7 C10 7.99 10 8.98 10 10 C5.95886635 10.84581867 3.00336856 11.00084214 -1 10 C-1.66 10 -2.32 10 -3 10 C-3.29296875 3.9453125 -3.29296875 3.9453125 -3 2 C-2.01 1.34 -1.02 0.68 0 0 Z " fill="#080808" transform="translate(179,252)"/>
<path d="M0 0 C3.96 0 7.92 0 12 0 C12 0.99 12 1.98 12 3 C10.68 3 9.36 3 8 3 C8 6.96 8 10.92 8 15 C7.01 15 6.02 15 5 15 C5 10.71 5 6.42 5 2 C3.35 2 1.7 2 0 2 C0 1.34 0 0.68 0 0 Z " fill="#C6C6C6" transform="translate(213,250)"/>
<path d="M0 0 C1.875 0.1875 1.875 0.1875 4 1 C5.25 3.5625 5.25 3.5625 6 6 C6.66 6 7.32 6 8 6 C8.37125 4.7934375 8.37125 4.7934375 8.75 3.5625 C9.1625 2.716875 9.575 1.87125 10 1 C12.078125 0.33984375 12.078125 0.33984375 14 0 C13.65066406 0.49628906 13.30132812 0.99257812 12.94140625 1.50390625 C9.85889249 6.10584605 8.34610059 9.46239061 8 15 C7.01 15 6.02 15 5 15 C4.9175 13.824375 4.835 12.64875 4.75 11.4375 C4.20155569 6.84530215 2.49130683 3.85750735 0 0 Z " fill="#C6C6C6" transform="translate(276,250)"/>
<path d="M0 0 C0.99 0 1.98 0 3 0 C3 3.96 3 7.92 3 12 C5.31 12 7.62 12 10 12 C10 12.99 10 13.98 10 15 C6.7 15 3.4 15 0 15 C0 10.05 0 5.1 0 0 Z " fill="#BFBFBF" transform="translate(244,250)"/>
<path d="M0 0 C2.15218912 0.99923066 3.90561565 1.9161028 5.6875 3.5 C9.16639239 5.75657885 12.96042697 6.26631686 17 7 C17 7.33 17 7.66 17 8 C19.475 8.495 19.475 8.495 22 9 C22 9.33 22 9.66 22 10 C14.61140698 10.44331558 8.0643221 10.75722511 2 6 C0 3.25 0 3.25 -1 1 C-0.67 0.67 -0.34 0.34 0 0 Z " fill="#ADADAD" transform="translate(616,179)"/>
<path d="M0 0 C1.32 0 2.64 0 4 0 C5.03271642 2.09836004 6.05083717 4.20390891 7.0625 6.3125 C7.63097656 7.48425781 8.19945312 8.65601563 8.78515625 9.86328125 C10 13 10 13 9 16 C8.34 16 7.68 16 7 16 C5.35 12.37 3.7 8.74 2 5 C0.35 5.66 -1.3 6.32 -3 7 C-2.01 4.69 -1.02 2.38 0 0 Z " fill="#B1B1B1" transform="translate(304,148)"/>
<path d="M0 0 C3.96 0 7.92 0 12 0 C12 0.66 12 1.32 12 2 C10.68 2 9.36 2 8 2 C8 6.29 8 10.58 8 15 C7.01 15 6.02 15 5 15 C5 10.71 5 6.42 5 2 C3.35 2 1.7 2 0 2 C0 1.34 0 0.68 0 0 Z " fill="#CACACA" transform="translate(375,250)"/>
<path d="M0 0 C1.258125 -0.04125 2.51625 -0.0825 3.8125 -0.125 C4.52019531 -0.14820313 5.22789062 -0.17140625 5.95703125 -0.1953125 C8 0 8 0 11 2 C11.1875 5.125 11.1875 5.125 11 8 C10.01 8.33 9.02 8.66 8 9 C9.98 11.97 9.98 11.97 12 15 C7.61308455 14.49381745 5.15608721 11.86917019 2 9 C2 8.67 2 8.34 2 8 C3.98 7.34 5.96 6.68 8 6 C7.67 5.01 7.34 4.02 7 3 C3.48809191 1.77030122 3.48809191 1.77030122 0 1 C0 0.67 0 0.34 0 0 Z " fill="#D8D8D8" transform="translate(404,250)"/>
<path d="M0 0 C1.423125 -0.061875 2.84625 -0.12375 4.3125 -0.1875 C5.51326172 -0.23970703 5.51326172 -0.23970703 6.73828125 -0.29296875 C9 0 9 0 10.7734375 1.3515625 C12.48891217 3.65707304 12.35928679 5.19756307 12 8 C10 10 10 10 8.0546875 10.1953125 C6.03645833 10.13020833 4.01822917 10.06510417 2 10 C2 9.67 2 9.34 2 9 C4.31 9 6.62 9 9 9 C8.67 7.02 8.34 5.04 8 3 C5.69 2.34 3.38 1.68 1 1 C1.33 5.62 1.66 10.24 2 15 C1.34 15 0.68 15 0 15 C0 10.05 0 5.1 0 0 Z " fill="#D9D9D9" transform="translate(194,250)"/>
<path d="M0 0 C6.875 0.875 6.875 0.875 8 2 C8.04080783 3.99958364 8.04254356 6.00045254 8 8 C5.69 8 3.38 8 1 8 C0.67 8.66 0.34 9.32 0 10 C0 6.7 0 3.4 0 0 Z " fill="#A5A5A5" transform="translate(195,251)"/>
<path d="M0 0 C1.423125 -0.061875 2.84625 -0.12375 4.3125 -0.1875 C5.51326172 -0.23970703 5.51326172 -0.23970703 6.73828125 -0.29296875 C9 0 9 0 10.8046875 1.3515625 C12 3 12 3 11.8125 5.5625 C11 8 11 8 9 10 C5.375 10.125 5.375 10.125 2 10 C2 11.65 2 13.3 2 15 C1.34 15 0.68 15 0 15 C0 10.05 0 5.1 0 0 Z M2 1 C2 3.64 2 6.28 2 9 C4.91652174 9.16681109 4.91652174 9.16681109 8 9 C10.26839983 7.16734675 10.26839983 7.16734675 10.1875 4.4375 C10.27003323 2.05310277 10.27003323 2.05310277 9 1 C6.66702567 0.95907063 4.33294775 0.95758277 2 1 Z " fill="#A4A4A4" transform="translate(520,250)"/>
<path d="M0 0 C1.32 0 2.64 0 4 0 C3.67 0.66 3.34 1.32 3 2 C2.67 2 2.34 2 2 2 C1.34 4.64 0.68 7.28 0 10 C1.65 10 3.3 10 5 10 C5.33 10.66 5.66 11.32 6 12 C3.36 12 0.72 12 -2 12 C-2.33 12.99 -2.66 13.98 -3 15 C-3.66 15 -4.32 15 -5 15 C-4.37321829 11.33827525 -3.35548154 8.1181005 -1.9375 4.6875 C-1.39416016 3.36298828 -1.39416016 3.36298828 -0.83984375 2.01171875 C-0.56269531 1.34785156 -0.28554687 0.68398437 0 0 Z " fill="#CFCFCF" transform="translate(232,250)"/>
<path d="M0 0 C0.66 0.33 1.32 0.66 2 1 C0.54997977 5.10839064 -1.3979134 8.50344613 -4 12 C-4.66 12 -5.32 12 -6 12 C-8.1875 9.1875 -8.1875 9.1875 -10 6 C-9.67 5.01 -9.34 4.02 -9 3 C-7.515 3.99 -7.515 3.99 -6 5 C-6 5.66 -6 6.32 -6 7 C-5.34 7 -4.68 7 -4 7 C-3.71125 6.21625 -3.4225 5.4325 -3.125 4.625 C-2 2 -2 2 0 0 Z " fill="#B8B8B8" transform="translate(452,164)"/>
<path d="M0 0 C0.33 0 0.66 0 1 0 C1 2.31 1 4.62 1 7 C3.97 7 6.94 7 10 7 C10 4.69 10 2.38 10 0 C10.66 0 11.32 0 12 0 C12 4.95 12 9.9 12 15 C11.34 15 10.68 15 10 15 C10 12.69 10 10.38 10 8 C7.03 8 4.06 8 1 8 C1 10.31 1 12.62 1 15 C0.67 15 0.34 15 0 15 C0 10.05 0 5.1 0 0 Z " fill="#B4B4B4" transform="translate(479,250)"/>
<path d="M0 0 C8.25 0 16.5 0 25 0 C25 0.66 25 1.32 25 2 C17.08 2.33 9.16 2.66 1 3 C0.67 2.01 0.34 1.02 0 0 Z " fill="#C8C8C8" transform="translate(386,167)"/>
<path d="M0 0 C2.475 0.495 2.475 0.495 5 1 C4.67854004 1.50305664 4.35708008 2.00611328 4.02587891 2.52441406 C2.64332849 5.86069708 2.64453553 9.05231593 2.5859375 12.609375 C2.56657135 13.33618469 2.5472052 14.06299438 2.5272522 14.81182861 C2.46765729 17.12443448 2.42115242 19.43709067 2.375 21.75 C2.33680164 23.32163582 2.29774883 24.89325113 2.2578125 26.46484375 C2.16197257 30.30972842 2.07786805 34.15471107 2 38 C1.67 38 1.34 38 1 38 C0.67 25.46 0.34 12.92 0 0 Z " fill="#AFAFAF" transform="translate(428,148)"/>
<path d="M0 0 C3.96 0 7.92 0 12 0 C12 0.66 12 1.32 12 2 C10.35 2 8.7 2 7 2 C7 6.29 7 10.58 7 15 C6.34 15 5.68 15 5 15 C5 10.71 5 6.42 5 2 C3.35 2 1.7 2 0 2 C0 1.34 0 0.68 0 0 Z " fill="#E4E4E4" transform="translate(262,250)"/>
<path d="M0 0 C2.64 0 5.28 0 8 0 C8 0.66 8 1.32 8 2 C6.02 2 4.04 2 2 2 C2 3.98 2 5.96 2 8 C3.98 8 5.96 8 8 8 C8 8.33 8 8.66 8 9 C6.35 9.33 4.7 9.66 3 10 C2.67 11.65 2.34 13.3 2 15 C1.34 15 0.68 15 0 15 C0 10.05 0 5.1 0 0 Z " fill="#DFDFDF" transform="translate(339,250)"/>
<path d="M0 0 C6.91851255 -0.50113974 11.35044762 -0.20711348 17 4 C17.33 4.99 17.66 5.98 18 7 C15.41407058 6.50270588 13.58813446 5.77534607 11.25 4.5 C7.35043941 2.7002028 4.259715 2.36721681 0 2 C0 1.34 0 0.68 0 0 Z " fill="#BEBEBE" transform="translate(628,148)"/>
<path d="M0 0 C0.99 0 1.98 0 3 0 C3 4.95 3 9.9 3 15 C2.01 15 1.02 15 0 15 C0 10.05 0 5.1 0 0 Z " fill="#C1C1C1" transform="translate(370,250)"/>
<path d="M0 0 C3.63 0 7.26 0 11 0 C11 0.99 11 1.98 11 3 C8.03 3 5.06 3 2 3 C2 5.31 2 7.62 2 10 C1.34 10 0.68 10 0 10 C0 6.7 0 3.4 0 0 Z " fill="#CCCCCC" transform="translate(389,250)"/>
<path d="M0 0 C0.99 0 1.98 0 3 0 C3 4.95 3 9.9 3 15 C2.01 15 1.02 15 0 15 C0 10.05 0 5.1 0 0 Z " fill="#BDBDBD" transform="translate(208,250)"/>
<path d="M0 0 C3.63 0 7.26 0 11 0 C11 0.99 11 1.98 11 3 C8.03 3 5.06 3 2 3 C2 5.31 2 7.62 2 10 C1.34 10 0.68 10 0 10 C0 6.7 0 3.4 0 0 Z " fill="#CACACA" transform="translate(311,250)"/>
<path d="M0 0 C2 1.375 2 1.375 4 3 C4 3.66 4 4.32 4 5 C-2.6 5 -9.2 5 -16 5 C-16 4.34 -16 3.68 -16 3 C-13 2 -13 2 -10.75 2.5 C-7.26269109 3.13405616 -4.45208077 2.73024785 -1 2 C-0.67 1.34 -0.34 0.68 0 0 Z " fill="#959595" transform="translate(409,115)"/>
<path d="M0 0 C0.33 0.99 0.66 1.98 1 3 C-1.64 3 -4.28 3 -7 3 C-7.33 3.66 -7.66 4.32 -8 5 C-6.35 5.33 -4.7 5.66 -3 6 C-3 6.33 -3 6.66 -3 7 C-4.99954746 7.04254356 -7.00041636 7.04080783 -9 7 C-10 6 -10 6 -10.25 3.5625 C-10.1675 2.716875 -10.085 1.87125 -10 1 C-6.1496895 -1.56687367 -4.41430237 -0.83288724 0 0 Z " fill="#CBCBCB" transform="translate(428,250)"/>
<path d="M0 0 C0.33 0 0.66 0 1 0 C1 4.95 1 9.9 1 15 C9.25 15 17.5 15 26 15 C26 15.33 26 15.66 26 16 C12.635 16.495 12.635 16.495 -1 17 C-0.67 11.39 -0.34 5.78 0 0 Z " fill="#9A9A9A" transform="translate(387,170)"/>
<path d="M0 0 C0.99 0 1.98 0 3 0 C3 2.31 3 4.62 3 7 C5.31 7 7.62 7 10 7 C10 7.33 10 7.66 10 8 C7.36 8 4.72 8 2 8 C2 9.98 2 11.96 2 14 C1.34 14 0.68 14 0 14 C0 9.38 0 4.76 0 0 Z " fill="#D3D3D3" transform="translate(146,250)"/>
<path d="M0 0 C0.99 0 1.98 0 3 0 C3.08082094 1.95766281 3.13910778 3.91626728 3.1875 5.875 C3.22230469 6.96554687 3.25710938 8.05609375 3.29296875 9.1796875 C3.19628906 10.11039062 3.09960938 11.04109375 3 12 C2.01 12.66 1.02 13.32 0 14 C-0.66 13.34 -1.32 12.68 -2 12 C-1.67 11.67 -1.34 11.34 -1 11 C-0.76636119 9.15108054 -0.58696365 7.29511969 -0.4375 5.4375 C-0.35371094 4.42558594 -0.26992188 3.41367188 -0.18359375 2.37109375 C-0.12300781 1.58863281 -0.06242187 0.80617187 0 0 Z " fill="#C4C4C4" transform="translate(364,250)"/>
<path d="M0 0 C1.98 0 3.96 0 6 0 C6.66 1.32 7.32 2.64 8 4 C6 6 6 6 2.875 6.125 C1.451875 6.063125 1.451875 6.063125 0 6 C0 4.02 0 2.04 0 0 Z " fill="#2C2C2C" transform="translate(341,252)"/>
<path d="M0 0 C0.66 0.33 1.32 0.66 2 1 C2 1.66 2 2.32 2 3 C-2.91064627 6.20695267 -5.95162041 7.69788995 -12 7 C-12.99 6.34 -13.98 5.68 -15 5 C-14.16855469 4.80664062 -13.33710938 4.61328125 -12.48046875 4.4140625 C-11.39378906 4.15367187 -10.30710937 3.89328125 -9.1875 3.625 C-8.10855469 3.36976563 -7.02960938 3.11453125 -5.91796875 2.8515625 C-2.84466657 2.11267119 -2.84466657 2.11267119 0 0 Z " fill="#BEBEBE" transform="translate(367,181)"/>
<path d="M0 0 C-0.33 0.99 -0.66 1.98 -1 3 C-1.66 3 -2.32 3 -3 3 C-3 3.66 -3 4.32 -3 5 C-2.01 5.33 -1.02 5.66 0 6 C1.5625 7.4375 1.5625 7.4375 3 9 C3.66 9.66 4.32 10.32 5 11 C1 11 1 11 -1.140625 9.1015625 C-1.83671875 8.28429687 -2.5328125 7.46703125 -3.25 6.625 C-4.30960937 5.40683594 -4.30960937 5.40683594 -5.390625 4.1640625 C-7 2 -7 2 -7 0 C-3.98968256 -0.93423645 -3.13349732 -1.04449911 0 0 Z " fill="#919191" transform="translate(389,105)"/>
<path d="M0 0 C1.98 0 3.96 0 6 0 C6.38218767 1.65614657 6.71395102 3.32457024 7 5 C6 6 6 6 2.9375 6.0625 C1.4834375 6.0315625 1.4834375 6.0315625 0 6 C0 4.02 0 2.04 0 0 Z " fill="#262626" transform="translate(299,252)"/>
<path d="M0 0 C2.64 0 5.28 0 8 0 C8 0.66 8 1.32 8 2 C6.02 2 4.04 2 2 2 C2 6.29 2 10.58 2 15 C1.34 15 0.68 15 0 15 C0 10.05 0 5.1 0 0 Z " fill="#E4E4E4" transform="translate(297,250)"/>
<path d="M0 0 C0.66 0 1.32 0 2 0 C2.66 5.28 3.32 10.56 4 16 C3.34 16.33 2.68 16.66 2 17 C-0.25998595 13.40537669 -0.20868087 10.43404325 -0.125 6.25 C-0.09792969 4.49429688 -0.09792969 4.49429688 -0.0703125 2.703125 C-0.04710937 1.81109375 -0.02390625 0.9190625 0 0 Z " fill="#BFBFBF" transform="translate(335,163)"/>
<path d="M0 0 C0.33 0 0.66 0 1 0 C1.66 2.31 2.32 4.62 3 7 C1.68 7.33 0.36 7.66 -1 8 C-1 7.34 -1 6.68 -1 6 C-3.64 6 -6.28 6 -9 6 C-9 5.01 -9 4.02 -9 3 C-5.92382812 2.70703125 -5.92382812 2.70703125 -2.84765625 2.4140625 C-2.23792969 2.27742188 -1.62820313 2.14078125 -1 2 C-0.67 1.34 -0.34 0.68 0 0 Z " fill="#101010" transform="translate(323,256)"/>
<path d="M0 0 C2.90100346 1.30044983 4.81312153 2.70898446 7 5 C7.33 5 7.66 5 8 5 C8 6.65 8 8.3 8 10 C7.01 10 6.02 10 5 10 C3.39453125 8.25 3.39453125 8.25 1.8125 6 C1.28269531 5.2575 0.75289062 4.515 0.20703125 3.75 C-0.19128906 3.1725 -0.58960938 2.595 -1 2 C-0.67 1.34 -0.34 0.68 0 0 Z " fill="#B3B3B3" transform="translate(549,175)"/>
<path d="M0 0 C1.73017508 0.45451184 3.45909877 0.91378857 5.1875 1.375 C6.15042969 1.63023437 7.11335937 1.88546875 8.10546875 2.1484375 C10.82210207 2.94766296 13.39137175 3.9031362 16 5 C16 5.33 16 5.66 16 6 C10.06997733 6.37851209 5.52760359 5.10575375 0 3 C0 2.01 0 1.02 0 0 Z " fill="#BEBEBE" transform="translate(620,163)"/>
<path d="M0 0 C1.98 0 3.96 0 6 0 C5.34257812 0.47179688 4.68515625 0.94359375 4.0078125 1.4296875 C1.05241865 5.21305161 1.63270103 8.47726515 1.875 13.125 C2.00070121 16.09992864 2.04084343 19.01842955 2 22 C1.34 22.66 0.68 23.32 0 24 C0 16.08 0 8.16 0 0 Z " fill="#B8B8B8" transform="translate(147,32)"/>
<path d="M0 0 C0.33 0 0.66 0 1 0 C1 4.95 1 9.9 1 15 C0.34 15 -0.32 15 -1 15 C-4 11.53846154 -4 11.53846154 -4 9 C-3.34 8.67 -2.68 8.34 -2 8 C-1.31527335 6.11235097 -1.31527335 6.11235097 -0.875 3.9375 C-0.70742188 3.20402344 -0.53984375 2.47054687 -0.3671875 1.71484375 C-0.24601562 1.14894531 -0.12484375 0.58304688 0 0 Z " fill="#0F0F0F" transform="translate(310,250)"/>
<path d="M0 0 C0.33 0 0.66 0 1 0 C1 4.29 1 8.58 1 13 C-2.31301959 9.68698041 -2.81389523 8.55956692 -3 4 C-1.625 1.625 -1.625 1.625 0 0 Z " fill="#181818" transform="translate(732,18)"/>
<path d="M0 0 C0.33 0.99 0.66 1.98 1 3 C3.64 3 6.28 3 9 3 C9 3.99 9 4.98 9 6 C6.36 6 3.72 6 1 6 C0.67 6.99 0.34 7.98 0 9 C-0.84454356 5.62182575 -1.10844919 3.32534757 0 0 Z " fill="#AFAFAF" transform="translate(391,253)"/>
<path d="M0 0 C0.33 0.99 0.66 1.98 1 3 C3.64 3 6.28 3 9 3 C9 3.99 9 4.98 9 6 C6.36 6 3.72 6 1 6 C0.67 6.99 0.34 7.98 0 9 C-1.125 3.375 -1.125 3.375 0 0 Z " fill="#AFAFAF" transform="translate(313,253)"/>
<path d="M0 0 C0.66 0.99 1.32 1.98 2 3 C0.14536523 3 -1.71006788 2.96536254 -3.5625 2.875 C-6.18314627 2.73650326 -6.18314627 2.73650326 -8 5 C-8.64767793 7.57061311 -8.64767793 7.57061311 -9 10 C-9.33 10 -9.66 10 -10 10 C-10.29296875 3.9453125 -10.29296875 3.9453125 -10 2 C-6.32003497 -0.45331002 -4.34586828 -0.39507893 0 0 Z " fill="#D5D5D5" transform="translate(173,250)"/>
<path d="M0 0 C0.33 0.66 0.66 1.32 1 2 C2.65 2 4.3 2 6 2 C6 6.29 6 10.58 6 15 C5.67 15 5.34 15 5 15 C4.67 12.03 4.34 9.06 4 6 C2.35 5.67 0.7 5.34 -1 5 C-0.67 3.35 -0.34 1.7 0 0 Z " fill="#191919" transform="translate(374,250)"/>
<path d="M0 0 C3.625 0.375 3.625 0.375 7 1 C6.67 2.32 6.34 3.64 6 5 C1.44615385 5.36923077 1.44615385 5.36923077 -0.8125 3.5 C-1.204375 3.005 -1.59625 2.51 -2 2 C-1.34 1.34 -0.68 0.68 0 0 Z " fill="#191919" transform="translate(420,258)"/>
<path d="M0 0 C2.15377564 2.62198774 3.40072174 4.64404172 4 8 C1.69 8 -0.62 8 -3 8 C-1.125 2.25 -1.125 2.25 0 0 Z " fill="#080808" transform="translate(505,252)"/>
<path d="M0 0 C0.53625 0.515625 1.0725 1.03125 1.625 1.5625 C4.00496499 3.32605545 4.00496499 3.32605545 7.25 2.6875 C8.1575 2.460625 9.065 2.23375 10 2 C10.33 2.99 10.66 3.98 11 5 C8.01405576 6.49297212 5.29146376 6.11755228 2 6 C1.34 5.67 0.68 5.34 0 5 C0 3.35 0 1.7 0 0 Z " fill="#C8C8C8" transform="translate(326,259)"/>
<path d="M0 0 C0.66 0 1.32 0 2 0 C2 4.95 2 9.9 2 15 C1.34 15 0.68 15 0 15 C-1.14229879 11.57310364 -0.90861076 9.38897782 -0.5625 5.8125 C-0.46066406 4.72582031 -0.35882812 3.63914063 -0.25390625 2.51953125 C-0.17011719 1.68808594 -0.08632813 0.85664063 0 0 Z " fill="#848484" transform="translate(604,250)"/>
<path d="M0 0 C0.66 0 1.32 0 2 0 C1.49287967 3.71888239 0.88391785 6.73454239 -1 10 C-1.99 10 -2.98 10 -4 10 C-3.43697042 6.05879291 -2.3208055 3.2491277 0 0 Z " fill="#BBBBBB" transform="translate(291,178)"/>
<path d="M0 0 C1.98 0 3.96 0 6 0 C5.67 1.65 5.34 3.3 5 5 C3.35 5 1.7 5 0 5 C0 3.35 0 1.7 0 0 Z " fill="#060606" transform="translate(197,253)"/>
<path d="M0 0 C0 0.66 0 1.32 0 2 C-3.90028225 4.60018816 -7.47434569 4.15085514 -12 4 C-11 2 -11 2 -7.6875 0.875 C-4 0 -4 0 0 0 Z " fill="#BCBCBC" transform="translate(644,184)"/>
<path d="M0 0 C0.66 0 1.32 0 2 0 C1.66354211 3.14027363 0.94763914 4.05098295 -1.375 6.3125 C-2.674375 7.1478125 -2.674375 7.1478125 -4 8 C-4.99 7.67 -5.98 7.34 -7 7 C-4.66666667 4.66666667 -2.33333333 2.33333333 0 0 Z " fill="#BCBCBC" transform="translate(233,166)"/>
<path d="M0 0 C1.6266848 0.28211877 3.25132896 0.57602375 4.875 0.875 C5.77992188 1.03742188 6.68484375 1.19984375 7.6171875 1.3671875 C10 2 10 2 12 4 C9 6 9 6 5.4375 5.375 C2 4 2 4 0.78515625 1.9140625 C0.52605469 1.28242188 0.26695312 0.65078125 0 0 Z " fill="#AAAAAA" transform="translate(631,166)"/>
<path d="M0 0 C2 3 2 3 1.625 6.1875 C1.41875 7.115625 1.2125 8.04375 1 9 C0.67 8.34 0.34 7.68 0 7 C-0.66 7 -1.32 7 -2 7 C-2 9.97 -2 12.94 -2 16 C-2.33 16 -2.66 16 -3 16 C-3.32712342 9.86946489 -3.39366878 5.37330889 0 0 Z " fill="#9B9B9B" transform="translate(337,156)"/>
<path d="M0 0 C-0.8125 1.9375 -0.8125 1.9375 -2 4 C-2.99 4.33 -3.98 4.66 -5 5 C-5 5.66 -5 6.32 -5 7 C-5.99 7.495 -5.99 7.495 -7 8 C-6.67 8.66 -6.34 9.32 -6 10 C-6.99 10 -7.98 10 -9 10 C-8.84759391 7.33289346 -8.50635081 5.5494129 -6.66796875 3.5546875 C-2.49375 0 -2.49375 0 0 0 Z " fill="#898989" transform="translate(256,37)"/>
<path d="M0 0 C6.27 0 12.54 0 19 0 C18.67 0.66 18.34 1.32 18 2 C18.33 2.33 18.66 2.66 19 3 C18.34 3.66 17.68 4.32 17 5 C16.65324219 4.51917969 16.30648437 4.03835937 15.94921875 3.54296875 C13.04800765 1.24641888 10.45828853 1.47973801 6.8125 1.3125 C5.54019531 1.24675781 4.26789062 1.18101563 2.95703125 1.11328125 C1.98121094 1.07589844 1.00539063 1.03851563 0 1 C0 0.67 0 0.34 0 0 Z " fill="#111111" transform="translate(640,31)"/>
<path d="M0 0 C3.87125216 1.5148378 5.63402389 2.22031176 7.4375 6.0625 C8 9 8 9 7 11 C5.82750647 9.54634731 4.66216184 8.08692581 3.5 6.625 C2.52546875 5.40683594 2.52546875 5.40683594 1.53125 4.1640625 C0 2 0 2 0 0 Z " fill="#A0A0A0" transform="translate(692,104)"/>
<path d="M0 0 C0.66 0 1.32 0 2 0 C0.51131293 4.60139641 -1.74629855 7.50227094 -5 11 C-5.66 11 -6.32 11 -7 11 C-5.51131293 6.39860359 -3.25370145 3.49772906 0 0 Z " fill="#A0A0A0" transform="translate(492,60)"/>
<path d="M0 0 C2.9375 0.6875 2.9375 0.6875 4.9375 1.6875 C4.9375 2.3475 4.9375 3.0075 4.9375 3.6875 C3.47957116 3.74149736 2.02107288 3.78029177 0.5625 3.8125 C-0.24960938 3.83570313 -1.06171875 3.85890625 -1.8984375 3.8828125 C-4.0625 3.6875 -4.0625 3.6875 -6.0625 1.6875 C-3.0625 -0.3125 -3.0625 -0.3125 0 0 Z " fill="#BFBFBF" transform="translate(186.0625,249.3125)"/>
<path d="M0 0 C0 0.66 0 1.32 0 2 C2.64 2 5.28 2 8 2 C8 2.33 8 2.66 8 3 C3.38 3.33 -1.24 3.66 -6 4 C-6 3.01 -6 2.02 -6 1 C-4 0 -4 0 0 0 Z " fill="#A1A1A1" transform="translate(628,148)"/>
<path d="M0 0 C0.33 1.32 0.66 2.64 1 4 C0.34 4 -0.32 4 -1 4 C-1.2475 4.556875 -1.495 5.11375 -1.75 5.6875 C-3.21606015 8.39971127 -5.02989471 10.63587365 -7 13 C-6.65986985 7.55791766 -3.29703472 4.06331802 0 0 Z " fill="#939393" transform="translate(549,57)"/>
<path d="M0 0 C1.98 0 3.96 0 6 0 C6 1.32 6 2.64 6 4 C4.02 4 2.04 4 0 4 C0 2.68 0 1.36 0 0 Z " fill="#090909" transform="translate(406,253)"/>
<path d="M0 0 C1 2 2 4 3 6 C1.02 6.99 -0.96 7.98 -3 9 C-3.1875 5.625 -3.1875 5.625 -3 2 C-2.01 1.34 -1.02 0.68 0 0 Z " fill="#202020" transform="translate(179,252)"/>
<path d="M0 0 C0.66 0 1.32 0 2 0 C4 3 4 3 3.625 5.1875 C3.41875 5.785625 3.2125 6.38375 3 7 C1.35 6.67 -0.3 6.34 -2 6 C-1.34 5.67 -0.68 5.34 0 5 C0 3.35 0 1.7 0 0 Z " fill="#090909" transform="translate(735,25)"/>
<path d="M0 0 C7.50769231 -0.36923077 7.50769231 -0.36923077 10 1.5 C10.495 2.2425 10.495 2.2425 11 3 C7.01803543 4.05404945 4.01804691 3.84098656 0 3 C0 2.01 0 1.02 0 0 Z " fill="#969696" transform="translate(734,13)"/>
<path d="M0 0 C4.875 4.75 4.875 4.75 6 7 C4.02 7 2.04 7 0 7 C0 4.69 0 2.38 0 0 Z " fill="#AEAEAE" transform="translate(529,149)"/>
<path d="M0 0 C0 0.33 0 0.66 0 1 C-1.98 1 -3.96 1 -6 1 C-6.66 2.32 -7.32 3.64 -8 5 C-8.99 4.34 -9.98 3.68 -11 3 C-10.67 2.01 -10.34 1.02 -10 0 C-6.7169902 -1.6415049 -3.57454967 -0.51888624 0 0 Z " fill="#828282" transform="translate(740,14)"/>
<path d="M0 0 C0.8125 1.625 0.8125 1.625 1 4 C-0.46818136 6.24609835 -2.15852858 8.02378677 -4 10 C-4.8125 8.375 -4.8125 8.375 -5 6 C-3.53181864 3.75390165 -1.84147142 1.97621323 0 0 Z " fill="#A2A2A2" transform="translate(477,81)"/>
<path d="M0 0 C0.99 0.33 1.98 0.66 3 1 C2.54917531 2.46067199 2.08906463 3.91848032 1.625 5.375 C1.36976563 6.18710938 1.11453125 6.99921875 0.8515625 7.8359375 C0 10 0 10 -2 12 C-1.85962479 10.18706911 -1.71255111 8.3746557 -1.5625 6.5625 C-1.48128906 5.55316406 -1.40007813 4.54382813 -1.31640625 3.50390625 C-1 1 -1 1 0 0 Z " fill="#999999" transform="translate(556,69)"/>
<path d="M0 0 C0.33 0 0.66 0 1 0 C1 3.3 1 6.6 1 10 C0.01 9.34 -0.98 8.68 -2 8 C-1.33333333 5.33333333 -0.66666667 2.66666667 0 0 Z M-5 9 C-4.01 9.33 -3.02 9.66 -2 10 C-2.66 10.66 -3.32 11.32 -4 12 C-4.33 11.01 -4.66 10.02 -5 9 Z " fill="#282828" transform="translate(353,250)"/>
<path d="M0 0 C3.86107457 2.57404971 3.94319692 4.61020259 5 9 C4.34 9 3.68 9 3 9 C0.8125 6.1875 0.8125 6.1875 -1 3 C-0.67 2.01 -0.34 1.02 0 0 Z " fill="#BFBFBF" transform="translate(443,167)"/>
<path d="M0 0 C0.33 0.99 0.66 1.98 1 3 C0.67 3.66 0.34 4.32 0 5 C-1.65 4.67 -3.3 4.34 -5 4 C-4.67 3.01 -4.34 2.02 -4 1 C-1.9375 0.3125 -1.9375 0.3125 0 0 Z " fill="#878787" transform="translate(253,106)"/>
<path d="M0 0 C3 3.75 3 3.75 3 6 C1.35 6 -0.3 6 -2 6 C-1.125 1.125 -1.125 1.125 0 0 Z " fill="#222222" transform="translate(234,254)"/>
<path d="M0 0 C1.5625 1.8125 1.5625 1.8125 3 4 C2.67 4.99 2.34 5.98 2 7 C1.34 7 0.68 7 0 7 C-0.66 5.02 -1.32 3.04 -2 1 C-1.34 0.67 -0.68 0.34 0 0 Z " fill="#ABABAB" transform="translate(311,157)"/>
<path d="M0 0 C1.65 0 3.3 0 5 0 C5.33 1.32 5.66 2.64 6 4 C4.02 4.33 2.04 4.66 0 5 C0.99 3.68 1.98 2.36 3 1 C2.01 0.67 1.02 0.34 0 0 Z " fill="#252525" transform="translate(183,258)"/>
<path d="M0 0 C2.50037734 2.17424117 3.43628586 3.73045798 4 7 C3.01 7 2.02 7 1 7 C0.34 5.02 -0.32 3.04 -1 1 C-0.67 0.67 -0.34 0.34 0 0 Z " fill="#C2C2C2" transform="translate(321,181)"/>
<path d="M0 0 C0.33 0.66 0.66 1.32 1 2 C3.02463255 2.65213292 3.02463255 2.65213292 5 3 C5.33 4.32 5.66 5.64 6 7 C5.01 7.33 4.02 7.66 3 8 C2.67 6.35 2.34 4.7 2 3 C1.34 3 0.68 3 0 3 C0 2.01 0 1.02 0 0 Z " fill="#ADADAD" transform="translate(316,174)"/>
<path d="M0 0 C0.66 0.33 1.32 0.66 2 1 C1.67 1.99 1.34 2.98 1 4 C-0.8125 4.5625 -0.8125 4.5625 -3 5 C-4.3479743 5.63654342 -5.68596724 6.29605388 -7 7 C-2.25 1.125 -2.25 1.125 0 0 Z " fill="#949494" transform="translate(557,50)"/>
<path d="M0 0 C3 1 3 1 4.25 2.875 C5 5 5 5 4 8 C4 7.34 4 6.68 4 6 C3.34 6 2.68 6 2 6 C0 3 0 3 0 0 Z " fill="#C2C2C2" transform="translate(315,170)"/>
<path d="M0 0 C0.66 0 1.32 0 2 0 C2.33 0.99 2.66 1.98 3 3 C-0.75 5 -0.75 5 -3 5 C-1.125 1.125 -1.125 1.125 0 0 Z " fill="#A9A9A9" transform="translate(620,150)"/>
<path d="M0 0 C1.875 0.3125 1.875 0.3125 4 1 C4.66 1.99 5.32 2.98 6 4 C5.67 4.99 5.34 5.98 5 7 C0 1.125 0 1.125 0 0 Z " fill="#0B0B0B" transform="translate(558,107)"/>
<path d="M0 0 C-0.66 1.32 -1.32 2.64 -2 4 C-2 3.01 -2 2.02 -2 1 C-4.31 0.67 -6.62 0.34 -9 0 C-9 -0.33 -9 -0.66 -9 -1 C-5.22102349 -2.0497157 -3.35080929 -2.10976881 0 0 Z " fill="#BFBFBF" transform="translate(429,258)"/>
<path d="M0 0 C0.99 0.33 1.98 0.66 3 1 C1.71937515 2.7074998 0.38232443 4.37373596 -1 6 C-1.66 6 -2.32 6 -3 6 C-1.125 1.125 -1.125 1.125 0 0 Z " fill="#D7D7D7" transform="translate(287,250)"/>
<path d="M0 0 C4.455 0.99 4.455 0.99 9 2 C9 2.33 9 2.66 9 3 C6.36 3 3.72 3 1 3 C0.67 2.01 0.34 1.02 0 0 Z " fill="#9C9C9C" transform="translate(349,186)"/>
<path d="M0 0 C1.32 0.66 2.64 1.32 4 2 C3.67 3.65 3.34 5.3 3 7 C1.68 5.35 0.36 3.7 -1 2 C-0.67 1.34 -0.34 0.68 0 0 Z " fill="#BFBFBF" transform="translate(642,170)"/>
<path d="M0 0 C2 1.375 2 1.375 4 3 C4 3.66 4 4.32 4 5 C1.69 4.67 -0.62 4.34 -3 4 C-2.01 2.68 -1.02 1.36 0 0 Z " fill="#9D9D9D" transform="translate(409,115)"/>
</svg>
