<svg xmlns="http://www.w3.org/2000/svg" version="1.1" viewBox="159 504.87 921.67 267.54">
<path d="M0 0 C13.2 0 26.4 0 40 0 C40.01458252 3.36550049 40.02916504 6.73100098 40.04418945 10.19848633 C40.09462151 21.34247491 40.16123192 32.48632502 40.23571491 43.6301775 C40.28055657 50.3838882 40.31999752 57.13754753 40.34643555 63.89135742 C40.37198529 70.4142806 40.41296771 76.93700307 40.46318626 83.45978355 C40.47981684 85.94310323 40.49135475 88.42646262 40.49761391 90.90983009 C40.50729623 94.39952064 40.53540597 97.88862827 40.56762695 101.37817383 C40.56619186 102.39525925 40.56475677 103.41234467 40.5632782 104.46025085 C40.71035208 115.79061018 43.34176607 127.33347558 51.3125 135.75 C59.94476226 143.83009196 69.4265817 145.51456679 80.9921875 145.24609375 C90.90657918 144.77675962 100.8862428 141.44367701 107.81640625 134.06640625 C117.8713215 120.33224883 116.60390679 103.95283538 116.609375 87.79296875 C116.62437404 85.25563002 116.64110477 82.71830099 116.65948486 80.1809845 C116.69854683 74.21736792 116.72032667 68.25385179 116.73345876 62.29013664 C116.74941364 55.49180267 116.78786407 48.6936514 116.82805204 41.89542425 C116.91011122 27.93031577 116.96144663 13.96529288 117 0 C130.2 0 143.4 0 157 0 C157.04527837 14.39573545 157.0819321 28.7914232 157.10362434 43.1872139 C157.11390396 49.87255863 157.12815367 56.55784872 157.15087891 63.24316406 C157.17269269 69.70114393 157.18458661 76.15907444 157.18975449 82.61708832 C157.19343495 85.07449876 157.20062179 87.53190666 157.21146011 89.98929596 C157.22608845 93.44507068 157.22797321 96.90064436 157.22705078 100.35644531 C157.23424133 101.36058472 157.24143188 102.36472412 157.24884033 103.39929199 C157.1866572 125.08685403 150.96144064 146.69142202 135.9375 162.6875 C119.48369029 178.48676858 97.27155383 183.45290048 75.03515625 183.2109375 C53.02505565 182.31392208 32.70052712 175.96137022 17.1015625 159.625 C0.21697975 138.53496356 -0.61696688 113.64859872 -0.390625 87.79296875 C-0.38314357 85.24465891 -0.37745967 82.69634322 -0.37347412 80.14802551 C-0.35990108 74.18808112 -0.32856538 68.22840799 -0.28807616 62.26860172 C-0.24290571 55.4678038 -0.22125933 48.66698907 -0.20129442 41.86607778 C-0.15981443 27.91052095 -0.08664812 13.95534576 0 0 Z " fill="#010101" transform="translate(716,508)"/>
<path d="M0 0 C38 0 38 0 45.375 6.6875 C46.83447266 9.01953125 46.83447266 9.01953125 47.6640625 11.125 C50.22302932 16.80133759 53.89489088 21.33432635 57.75 26.1875 C59.12223575 27.97890744 60.49070111 29.77320904 61.85546875 31.5703125 C63.91448622 34.26820178 65.97388313 36.96580038 68.03369141 39.66308594 C75.27125214 49.14146976 82.48721452 58.6336775 89.625 68.1875 C94.47526339 74.67809684 99.38806481 81.11380417 104.375 87.5 C112.48766462 97.89417463 112.48766462 97.89417463 116.3125 102.9375 C117.00988281 103.85402344 117.70726562 104.77054688 118.42578125 105.71484375 C120 108 120 108 121 111 C133.87 111 146.74 111 160 111 C160 133.44 160 155.88 160 179 C126 179 126 179 118.625 172.5 C117.41464509 170.40440169 116.2035944 168.30551374 115.12792969 166.13769531 C113.24816403 162.57509182 110.72886569 159.53500997 108.25 156.375 C107.24643933 155.03521181 106.24653717 153.69267673 105.25 152.34765625 C101.61799864 147.47614453 97.93571407 142.64343715 94.25 137.8125 C93.57485352 136.92739746 92.89970703 136.04229492 92.20410156 135.13037109 C90.82438185 133.32197841 89.44449807 131.5137109 88.06445312 129.70556641 C84.70712459 125.30562378 81.35373735 120.9026801 78 116.5 C76.67058761 114.75519714 75.3411605 113.01040549 74.01171875 111.265625 C71.30557723 107.71385557 68.59989824 104.16173441 65.89453125 100.609375 C65.21068359 99.71154297 64.52683594 98.81371094 63.82226562 97.88867188 C62.5539041 96.2234081 61.28565911 94.55805554 60.01757812 92.89257812 C53.69029648 84.58588798 47.3430459 76.29475233 41 68 C40.67 104.96 40.34 141.92 40 180 C26.8 180 13.6 180 0 180 C0 120.6 0 61.2 0 0 Z " fill="#030303" transform="translate(478,508)"/>
<path d="M0 0 C-0.89662447 4.29912451 -3.10502434 7.43162932 -5.5625 11 C-6.46752848 12.33458078 -7.37247518 13.66921703 -8.27734375 15.00390625 C-8.73222168 15.6705127 -9.18709961 16.33711914 -9.65576172 17.02392578 C-11.66721478 19.98082753 -13.64536904 22.95920012 -15.625 25.9375 C-17.3125 28.46875 -17.3125 28.46875 -19 31 C-23.07742619 29.52004531 -26.55431254 27.50944873 -30.25 25.25 C-35.64308442 22.0624478 -41.08719417 19.62798516 -47 17.5625 C-47.70543945 17.3159668 -48.41087891 17.06943359 -49.13769531 16.81542969 C-59.10161293 13.47830054 -70.08240392 12.18491798 -80.09375 16.01171875 C-84.16416668 18.12199625 -86.50907268 21.26360902 -89 25 C-89.73652601 29.49623439 -89.4096813 33.11235719 -87.5 37.25 C-81.61998248 43.71801927 -74.2950165 46.17135424 -66.0625 48.5 C-65.05123047 48.79769287 -64.03996094 49.09538574 -62.99804688 49.40209961 C-58.4220271 50.74545519 -53.834537 52.04751519 -49.24609375 53.34765625 C-30.04503955 58.8157355 -9.28302892 65.18461411 1.375 83.375 C7.73702421 96.04718409 8.03484838 112.72665244 4.04296875 126.2578125 C-1.88818775 141.85208914 -12.01769215 151.14282162 -27 158 C-47.63538841 166.28030369 -71.91400187 165.24923595 -93 159 C-94.22203125 158.649375 -95.4440625 158.29875 -96.703125 157.9375 C-110.7088414 153.41547498 -124.68803211 145.59753008 -135 135 C-133.47260916 131.57326304 -131.45668829 128.94158718 -129.0625 126.0625 C-128.27101563 125.10859375 -127.47953125 124.1546875 -126.6640625 123.171875 C-122.12993946 117.76382802 -117.57236562 112.37573454 -113 107 C-109.11803208 108.360761 -106.33855413 110.13968216 -103.125 112.6875 C-86.88222747 124.786933 -68.02999555 128.99366062 -48 127 C-42.75936293 125.48003919 -38.59463981 123.13702628 -35 119 C-34.00036685 116.00110054 -33.76928686 113.76733714 -33.6875 110.625 C-33.65011719 109.68914062 -33.61273437 108.75328125 -33.57421875 107.7890625 C-34.13335693 104.12645092 -35.40194812 102.61117336 -38 100 C-48.84279346 93.0938702 -62.39290724 90.60946533 -74.64257812 87.28222656 C-92.6939213 82.32388852 -112.65791846 75.88399432 -123.15234375 59.1640625 C-130.14797097 46.22875178 -131.12976414 30.90702871 -127.03515625 16.87109375 C-121.86007964 2.51757939 -114.235574 -6.5232672 -101 -14 C-100.33226562 -14.40089844 -99.66453125 -14.80179688 -98.9765625 -15.21484375 C-93.06493525 -18.51986742 -86.59289564 -19.70694176 -80 -21 C-78.845 -21.226875 -77.69 -21.45375 -76.5 -21.6875 C-48.17491634 -24.21652533 -23.18795472 -15.72064727 0 0 Z " fill="#010101" transform="translate(1074,527)"/>
<path d="M0 0 C12.87 0 25.74 0 39 0 C39 47.52 39 95.04 39 144 C68.7 144 98.4 144 129 144 C129 155.88 129 167.76 129 180 C86.43 180 43.86 180 0 180 C0 120.6 0 61.2 0 0 Z " fill="#000000" transform="translate(159,508)"/>
<path d="M0 0 C12.87 0 25.74 0 39 0 C39 59.4 39 118.8 39 180 C26.13 180 13.26 180 0 180 C0 120.6 0 61.2 0 0 Z " fill="#000000" transform="translate(357,508)"/>
<path d="M0 0 C6.85134625 3.90405765 11.37886049 9.32558276 13.625 16.9375 C14.69656149 25.3433046 13.55484486 31.97114493 8.625 38.9375 C4.08048716 44.04333034 -1.25321727 47.41206028 -8.1328125 48.2890625 C-15.61126937 48.65246578 -21.26253482 47.32918483 -27.375 42.9375 C-32.48947346 38.23104576 -35.98464803 33.73662321 -36.7109375 26.66796875 C-36.80462626 18.17039825 -36.47514338 12.33114605 -30.57421875 6.0078125 C-21.8451324 -2.16193434 -11.23019516 -5.13235163 0 0 Z " fill="#000000" transform="translate(793.375,724.0625)"/>
<path d="M0 0 C12.87 0 25.74 0 39 0 C39 12.87 39 25.74 39 39 C26.13 39 13.26 39 0 39 C0 26.13 0 13.26 0 0 Z " fill="#000000" transform="translate(599,508)"/>
<path d="M0 0 C21 0 21 0 29 5 C31.94617956 8.40652011 32.5302969 11.42516186 32.359375 15.9375 C31.7234737 19.58702048 30.1206421 21.97051128 28 25 C27.01 25.66 26.02 26.32 25 27 C25.45756143 32.11105849 28.06190946 35.23761672 31.0625 39.1875 C36 45.75511596 36 45.75511596 36 48 C32.74662901 48.83064791 30.23641301 48.9679906 27 48 C22.49230541 43.49230541 19.21026162 38.11007537 16.05078125 32.6015625 C15.37402344 31.74304688 14.69726562 30.88453125 14 30 C12.35 30 10.7 30 9 30 C8.67 35.94 8.34 41.88 8 48 C5.36 48 2.72 48 0 48 C0 32.16 0 16.32 0 0 Z " fill="#000000" transform="translate(462,723)"/>
<path d="M0 0 C4.14149675 1.03537419 5.00404186 1.63459734 7.86328125 4.53515625 C8.58580078 5.26283203 9.30832031 5.99050781 10.05273438 6.74023438 C10.79845703 7.50658203 11.54417969 8.27292969 12.3125 9.0625 C13.41368164 10.17141602 13.41368164 10.17141602 14.53710938 11.30273438 C18.66318061 15.48738338 22.61109156 19.76456264 26.38354492 24.27124023 C28.25358511 26.3720194 28.25358511 26.3720194 32 29 C32 19.43 32 9.86 32 0 C34.64 0 37.28 0 40 0 C40 15.84 40 31.68 40 48 C36.1216391 47.03040977 35.38569692 46.76032825 32.79296875 44.12109375 C31.91813843 43.239375 31.91813843 43.239375 31.02563477 42.33984375 C30.41905029 41.71207031 29.81246582 41.08429687 29.1875 40.4375 C28.24765259 39.48230469 28.24765259 39.48230469 27.28881836 38.5078125 C23.6129386 34.74720416 20.0322257 30.93487958 16.72265625 26.84375 C14.05312502 23.98656465 10.96886857 21.54474449 8 19 C8 28.57 8 38.14 8 48 C5.36 48 2.72 48 0 48 C0 32.16 0 16.32 0 0 Z " fill="#000000" transform="translate(835,723)"/>
<path d="M0 0 C4.14149675 1.03537419 5.00404186 1.63459734 7.86328125 4.53515625 C8.58580078 5.26283203 9.30832031 5.99050781 10.05273438 6.74023438 C10.79845703 7.50658203 11.54417969 8.27292969 12.3125 9.0625 C13.41368164 10.17141602 13.41368164 10.17141602 14.53710938 11.30273438 C18.66318061 15.48738338 22.61109156 19.76456264 26.38354492 24.27124023 C28.25358511 26.3720194 28.25358511 26.3720194 32 29 C32 19.43 32 9.86 32 0 C34.64 0 37.28 0 40 0 C40 15.84 40 31.68 40 48 C36.1216391 47.03040977 35.38569692 46.76032825 32.79296875 44.12109375 C31.91813843 43.239375 31.91813843 43.239375 31.02563477 42.33984375 C30.41905029 41.71207031 29.81246582 41.08429687 29.1875 40.4375 C28.24765259 39.48230469 28.24765259 39.48230469 27.28881836 38.5078125 C23.6129386 34.74720416 20.0322257 30.93487958 16.72265625 26.84375 C14.05312502 23.98656465 10.96886857 21.54474449 8 19 C8 28.57 8 38.14 8 48 C5.36 48 2.72 48 0 48 C0 32.16 0 16.32 0 0 Z " fill="#000000" transform="translate(525,723)"/>
<path d="M0 0 C4.14149675 1.03537419 5.00404186 1.63459734 7.86328125 4.53515625 C8.58580078 5.26283203 9.30832031 5.99050781 10.05273438 6.74023438 C10.79845703 7.50658203 11.54417969 8.27292969 12.3125 9.0625 C13.41368164 10.17141602 13.41368164 10.17141602 14.53710938 11.30273438 C18.66318061 15.48738338 22.61109156 19.76456264 26.38354492 24.27124023 C28.25358511 26.3720194 28.25358511 26.3720194 32 29 C32 19.43 32 9.86 32 0 C34.64 0 37.28 0 40 0 C40 15.84 40 31.68 40 48 C36.1216391 47.03040977 35.38569692 46.76032825 32.79296875 44.12109375 C31.91813843 43.239375 31.91813843 43.239375 31.02563477 42.33984375 C30.41905029 41.71207031 29.81246582 41.08429687 29.1875 40.4375 C28.24765259 39.48230469 28.24765259 39.48230469 27.28881836 38.5078125 C23.6129386 34.74720416 20.0322257 30.93487958 16.72265625 26.84375 C14.05312502 23.98656465 10.96886857 21.54474449 8 19 C8 28.57 8 38.14 8 48 C5.36 48 2.72 48 0 48 C0 32.16 0 16.32 0 0 Z " fill="#000000" transform="translate(271,723)"/>
<path d="M0 0 C0.66 0 1.32 0 2 0 C4.49420625 5.22679545 6.98427587 10.45553469 9.47070312 15.68603516 C10.31530041 17.46130128 11.16098201 19.23605198 12.0078125 21.01025391 C13.2320969 23.57576496 14.4523351 26.14316832 15.671875 28.7109375 C16.04495789 29.49052826 16.41804077 30.27011902 16.8024292 31.07333374 C19.43453846 36.62914998 21.77424196 42.26984296 24 48 C21.03 48 18.06 48 15 48 C14.01 46.02 13.02 44.04 12 42 C8.41728224 41.8256041 4.83565398 41.71912342 1.25 41.625 C0.23421875 41.57472656 -0.7815625 41.52445313 -1.828125 41.47265625 C-4.67156135 41.4165358 -7.2137057 41.42109668 -10 42 C-12.49540371 44.86615486 -12.49540371 44.86615486 -14 48 C-16.140625 48.5859375 -16.140625 48.5859375 -18.25 48.375 C-20.10625 48.189375 -20.10625 48.189375 -22 48 C-20.42870108 42.83466331 -18.26217558 38.09757365 -15.9375 33.2421875 C-15.54554443 32.41671417 -15.15358887 31.59124084 -14.74975586 30.74075317 C-13.50306511 28.11728571 -12.25156046 25.49614721 -11 22.875 C-10.15854625 21.10561515 -9.31739726 19.33608533 -8.4765625 17.56640625 C-6.93539883 14.32579743 -5.39347344 11.08555992 -3.84765625 7.84716797 C-3.53836182 7.19908173 -3.22906738 6.55099548 -2.91040039 5.88327026 C-1.9579688 3.91305352 -0.98286696 1.9551877 0 0 Z " fill="#000000" transform="translate(924,723)"/>
<path d="M0 0 C0.66 0 1.32 0 2 0 C4.49420625 5.22679545 6.98427587 10.45553469 9.47070312 15.68603516 C10.31530041 17.46130128 11.16098201 19.23605198 12.0078125 21.01025391 C13.2320969 23.57576496 14.4523351 26.14316832 15.671875 28.7109375 C16.04495789 29.49052826 16.41804077 30.27011902 16.8024292 31.07333374 C19.43453846 36.62914998 21.77424196 42.26984296 24 48 C21.03 48 18.06 48 15 48 C14.01 46.02 13.02 44.04 12 42 C8.41728224 41.8256041 4.83565398 41.71912342 1.25 41.625 C0.23421875 41.57472656 -0.7815625 41.52445313 -1.828125 41.47265625 C-4.67156135 41.4165358 -7.2137057 41.42109668 -10 42 C-12.49540371 44.86615486 -12.49540371 44.86615486 -14 48 C-16.140625 48.5859375 -16.140625 48.5859375 -18.25 48.375 C-20.10625 48.189375 -20.10625 48.189375 -22 48 C-20.42870108 42.83466331 -18.26217558 38.09757365 -15.9375 33.2421875 C-15.54554443 32.41671417 -15.15358887 31.59124084 -14.74975586 30.74075317 C-13.50306511 28.11728571 -12.25156046 25.49614721 -11 22.875 C-10.15854625 21.10561515 -9.31739726 19.33608533 -8.4765625 17.56640625 C-6.93539883 14.32579743 -5.39347344 11.08555992 -3.84765625 7.84716797 C-3.53836182 7.19908173 -3.22906738 6.55099548 -2.91040039 5.88327026 C-1.9579688 3.91305352 -0.98286696 1.9551877 0 0 Z " fill="#000000" transform="translate(614,723)"/>
<path d="M0 0 C4.3966905 2.50611359 6.94280288 5.79462501 8.75 10.5 C9.85805887 16.118741 8.80278142 20.81518231 6.02734375 25.7734375 C3.02370831 29.83339734 -1.26962089 32.02720894 -6.1953125 32.80859375 C-12.08802651 33.15708759 -15.65396982 31.72935074 -20.36328125 28.1953125 C-24.45255499 24.52089261 -25.41636649 20.94686143 -25.75 15.625 C-25.56201227 10.19787592 -23.89250417 6.50214382 -20.25 2.5 C-14.34445683 -2.68749946 -7.09233052 -2.99186824 0 0 Z " fill="#E4E2E2" transform="translate(790.25,731.5)"/>
<path d="M0 0 C10.23 0 20.46 0 31 0 C31 2.31 31 4.62 31 7 C23.74 7.33 16.48 7.66 9 8 C9 11.63 9 15.26 9 19 C14.61 19.33 20.22 19.66 26 20 C26 22.64 26 25.28 26 28 C17.585 28.495 17.585 28.495 9 29 C9 32.3 9 35.6 9 39 C16.26 39.33 23.52 39.66 31 40 C31 42.64 31 45.28 31 48 C20.77 48 10.54 48 0 48 C0 32.16 0 16.32 0 0 Z " fill="#000000" transform="translate(403,723)"/>
<path d="M0 0 C13.2 0 26.4 0 40 0 C40 2.31 40 4.62 40 7 C39.67 7.33 39.34 7.66 39 8 C34.05 8 29.1 8 24 8 C24 21.2 24 34.4 24 48 C21.36 48 18.72 48 16 48 C15.67 35.13 15.34 22.26 15 9 C10.05 8.67 5.1 8.34 0 8 C0 5.36 0 2.72 0 0 Z " fill="#000000" transform="translate(654,723)"/>
<path d="M0 0 C13.2 0 26.4 0 40 0 C40 2.31 40 4.62 40 7 C39.67 7.33 39.34 7.66 39 8 C34.05 8 29.1 8 24 8 C24 21.2 24 34.4 24 48 C21.36 48 18.72 48 16 48 C15.67 35.13 15.34 22.26 15 9 C10.05 8.67 5.1 8.34 0 8 C0 5.36 0 2.72 0 0 Z " fill="#000000" transform="translate(336,723)"/>
<path d="M0 0 C2.64 0 5.28 0 8 0 C8.33 12.87 8.66 25.74 9 39 C16.26 39.33 23.52 39.66 31 40 C31 42.64 31 45.28 31 48 C20.77 48 10.54 48 0 48 C0 32.16 0 16.32 0 0 Z " fill="#000000" transform="translate(974,723)"/>
<path d="M0 0 C2.64 0 5.28 0 8 0 C8 15.84 8 31.68 8 48 C5.36 48 2.72 48 0 48 C0 32.16 0 16.32 0 0 Z " fill="#000000" transform="translate(721,723)"/>
<path d="M0 0 C2.64 0 5.28 0 8 0 C8 15.84 8 31.68 8 48 C5.36 48 2.72 48 0 48 C0 32.16 0 16.32 0 0 Z " fill="#000000" transform="translate(233,723)"/>
<path d="M0 0 C0.87269531 -0.02578125 1.74539063 -0.0515625 2.64453125 -0.078125 C5.69455127 0.31542597 7.02098657 1.08844427 9.1875 3.25 C9.6875 6.75 9.6875 6.75 9.1875 10.25 C7.02098657 12.41155573 5.69455127 13.18457403 2.64453125 13.578125 C1.77183594 13.55234375 0.89914062 13.5265625 0 13.5 C-1.32064453 13.47679687 -1.32064453 13.47679687 -2.66796875 13.453125 C-4.8125 13.25 -4.8125 13.25 -5.8125 12.25 C-5.91101171 10.41884117 -5.94222629 8.58380067 -5.9375 6.75 C-5.94007813 5.7496875 -5.94265625 4.749375 -5.9453125 3.71875 C-5.71448901 -0.57185143 -3.84636951 0.06757897 0 0 Z " fill="#E4E2E2" transform="translate(475.8125,730.75)"/>
<path d="M0 0 C0.66 0 1.32 0 2 0 C3.00732399 1.93370231 4.00563288 3.87210306 5 5.8125 C5.8353125 7.43091797 5.8353125 7.43091797 6.6875 9.08203125 C8 12 8 12 8 15 C3.38 15 -1.24 15 -6 15 C-5.16717288 10.83586441 -4.33920962 8.34463388 -2.4375 4.6875 C-1.98246094 3.80449219 -1.52742187 2.92148437 -1.05859375 2.01171875 C-0.53458984 1.01591797 -0.53458984 1.01591797 0 0 Z " fill="#E3E1E0" transform="translate(924,741)"/>
<path d="M0 0 C0.66 0 1.32 0 2 0 C3.00732399 1.93370231 4.00563288 3.87210306 5 5.8125 C5.8353125 7.43091797 5.8353125 7.43091797 6.6875 9.08203125 C8 12 8 12 8 15 C3.38 15 -1.24 15 -6 15 C-5.16717288 10.83586441 -4.33920962 8.34463388 -2.4375 4.6875 C-1.98246094 3.80449219 -1.52742187 2.92148437 -1.05859375 2.01171875 C-0.53458984 1.01591797 -0.53458984 1.01591797 0 0 Z " fill="#E3E1E0" transform="translate(614,741)"/>
</svg>