<svg xmlns="http://www.w3.org/2000/svg" viewBox="77.175 533.6 1838 466.4" width="500" height="100" xmlns:v="https://vecta.io/nano"><style><![CDATA[.B{fill:#f4f4f4}.C{fill:#f5f5f5}.D{fill:#f1f1f1}.E{fill:#f6f6f6}.F{fill:#f3f3f3}.G{fill:#f2f2f2}]]></style><path fill="#ffffff00" d="M0 0h2000v600C1340 1545 680 500 0 500c0 535.15 0 25.3 0-500z"/><path d="M855 587c4.248 3.7 7.6 8.051 8.371 13.734.157 7.147-.586 11.823-5.371 17.266-7.504 7.312-16.72 6.344-26.527 6.391-7.304.159-12.915 1.387-19.473 4.609l-2.777 1.316c-10.227 5.899-17.786 14.8-25.047 23.957a163.18 163.18 0 0 1-4.383 5.266c-26.266 30.452-34.336 70.31-31.575 109.564 2.658 27.527 8.853 52.97 30.145 72.01 4.115 3.34 7.51 5.361 12.637 6.887l-1.937-11.812-.553-3.393-.537-3.252-.492-2.999c-.442-2.652-.442-2.652-1.481-5.544-2.167-14.821-2.368-29.866-2.312-44.812l.005-3.027c.055-20.411.81-40.623 7.308-60.161l.636-1.929c8.134-24.249 21.651-46.129 44.879-58.383 5.048-2.445 10.065-4.263 15.484-5.687l2.418-.68c13.734-3.188 30.238-2.727 43.582 1.68l3.32 1.066c7.445 2.617 13.541 5.995 19.68 10.934l2.523 1.992C944.758 679.829 954.863 710.328 958 737c.259 4.588.286 9.156.25 13.75l-.016 3.708c-.097 9.327-.847 18.332-2.234 27.542l-.402 3.586C951.985 817.311 939.819 843.814 922 870l-1.265 1.886c-5.795 8.608-12.252 16.216-19.413 23.715-2.876 3.042-5.596 6.222-8.322 9.398l-1.754 2.039L887 912c6.756 7.586 14.839 12.397 23.813 17 5.813 3.114 9.343 6.731 12.563 12.438 1.634 6.7.835 12.529-2.375 18.563-3.425 5.19-6.884 8.296-13 10-7.552.595-14.372-.388-21.625-2.437l-2.877-.806C864.492 961.122 847.144 949.79 835 934v-2c-4.819-2.499-8.84-4.234-14.332-4.309l-3.133-.069-3.348-.06c-40.692-1.223-74.478-12.398-103.273-42.34C693.667 866.604 683.295 842.277 677 818l-.949-3.15c-3.905-14.311-4.593-28.843-4.488-43.6l.009-2.778c.069-14.168.892-27.695 4.428-41.472l.617-2.563C683.76 695.122 696.603 665.667 714 641l2.27-3.254c5.654-7.813 12.066-14.802 18.73-21.746l1.415-1.498C751.132 598.953 768.809 587.927 789 581l3.652-1.254c21.01-6.223 43.63-4.285 62.348 7.254zm470.188-.437c13.373 7.799 19.346 23.746 24.86 37.506l2.546 6.185c7.357 17.952 7.57 36.194 7.609 55.332l.009 2.829.029 14.868.041 12.089c.13 23.409-.131 46.398-3.281 69.629l-.332 2.522a318.65 318.65 0 0 1-2.043 13.103l-.654 3.765c-9.1 51.102-31.953 104.02-75.096 135.547-18.22 11.949-37.203 15.661-58.562 11.938C1196.3 946.357 1173.07 932.508 1159 912l-1.937-2.77C1149.681 898 1144.961 885.432 1140 873h-2c-1.569 1.551-1.569 1.551-3.187 3.563-5.757 6.756-12.061 12.688-18.812 18.438l-2.461 2.195c-7.033 6.084-14.093 10.038-22.539 13.805l-2.246 1.027c-15.77 6.59-35.975 5.906-51.754-.027-25.942-10.74-41.3-29.538-52-55l-.821-1.935C962.733 803.271 974.328 738.273 995 688c3.43-8.115 7.112-16.095 11-24l1.149-2.341c6.752-13.584 14.841-26.206 29.081-32.769 6.242-2.007 12.43-2.113 18.609.148 6.537 3.519 11.285 8.693 13.797 15.75 1.739 10.582.365 21.852-.949 32.398l-.356 2.872c-.726 5.436-1.685 10.782-2.8 16.151-9.026 44.294-12.785 99.265 10.469 139.789 1.069 1.254 1.069 1.254 3.5 1.5 8.021-1.146 13.69-8.425 18.5-14.5 12.814-17.679 21.562-38.212 29.09-58.571l1.787-4.571c1.928-4.766 2.734-9.188 3.186-14.296l.48-4.527.232-2.144c.34-2.858.905-5.613 1.604-8.403a203.28 203.28 0 0 0 1.461-6.383c5.495-25.316 5.495-25.316 17.16-33.105 6.348-3.216 14.356-2.971 21.223-1.535 1.715.66 1.715.66 4.777 2.535l1.723 1.043c24.292 17.351 26.57 75.866 31.133 103.188 2.974 17.763 6.415 35.385 11.145 52.77l.992 3.699c4.322 15.326 4.322 15.326 15.008 26.301 4.125-.051 5.736-.773 8.895-3.484a143.76 143.76 0 0 0 2.918-3.266l1.573-1.766c27.598-31.585 39.519-72.547 46.206-113.082l1.209-6.496c7.548-38.939 11.154-86.552.199-124.906l-.629-2.229-2.636-8.943c-1.995-7.682-1.199-13.606 2.633-20.559 6.243-8.677 16.863-12.258 26.82-7.707zM224.625 547.625h2.502c13.65.028 26.562 1.211 39.873 4.375l4.273.91c30.947 6.826 62.395 23.075 80.082 50.344L353 606l1.073 1.773c15.745 26.232 21.238 54.673 14.33 84.721-11.142 43.784-46.3 81.478-84.349 104.302-16.513 9.678-33.652 16.928-51.87 22.766l-2.141.688-5.507 1.679L222 823l-1 3 1.779.856c2.029 1.045 3.871 2.17 5.761 3.446l2.07 1.39 2.238 1.511 4.879 3.271 2.603 1.744 13.666 9.016 5.689 3.738 8.675 5.693c19.334 12.676 19.334 12.676 27.439 18.701 2.116 1.571 4.262 3.086 6.431 4.583 9.357 6.466 18.265 13.319 27.009 20.59l7.448 6.085 13.473 11.285c6.171 5.233 12.416 10.377 18.758 15.402 14.957 11.949 14.957 11.949 16.707 20.875.863 8.777 1.003 15.775-4.324 23.172-5.077 6.104-10.427 10.116-18.301 11.641-17.285 1.281-30.293-4.554-45-13l-2.257-1.295C304.554 968.216 294.19 960.949 284 953l-4.367-3.379-11.333-8.826-9.257-7.202-19.718-15.413-16.576-12.912-14.436-11.456a431.42 431.42 0 0 0-15.625-12l-1.942-1.425c-3.254-2.384-3.254-2.384-6.745-4.388l-.148 3.656-.227 4.844-.094 2.398c-.38 7.73-1.853 14.321-5.406 21.289l-1.492 2.98c-4.853 8.418-12.082 13.654-21.387 16.363-8.095 1.689-16.182.368-23.375-3.75-9.295-6.548-15.704-14.827-18.871-25.781-.541-4.677-.606-9.289-.53-13.988l.032-6.814.083-16.898.043-14.355.077-6.673c.033-7.058-.166-12.35-5.108-17.743L106 820c-6.203-6.629-10.101-13.126-10.5-22.437.565-12.51 6.663-19.979 15.375-28.312 4.306-4.559 4.643-9.906 5.188-15.937l.254-2.71c.808-9.515 1.008-19.045 1.237-28.586.246-10.116.721-20.151 1.652-30.232.569-6.34.941-12.664 1.193-19.023l.211-4.946.273-7.303c.361-12.143 1.234-27.106 10.391-36.215 5.847-4.392 11.495-6.1 18.727-5.297 5.38 1.322 10.51 3.558 14 8 7.873 14.314 8.54 30.444 9.714 46.348l1.04 12.059.201 2.19.202 2.207c1.031 11.259 2.033 22.503 2.498 33.802.496 11.814 1.468 23.604 2.346 35.395 27.238-7.118 53.109-18.567 76-35l1.709-1.218C274.616 710.623 286.831 696.97 294 677l.746-2c2.811-8.994 2.675-20.132-1.359-28.668-12.74-21.425-34.4-30.634-57.501-36.634L229 608l-2.193-.553c-24.015-5.78-53.07-3.91-76.97 2.097-6.634 1.648-14.671 1.575-20.837-1.481-5.444-3.545-8.967-8.962-11-15.062-.707-7.171-.413-13.128 4-19 13.039-15.407 38.644-18.392 57.375-22.25l2.188-.458c14.279-2.798 28.543-3.701 43.062-3.667zm1219.75 109.125l2.473.027c27.251.516 49.148 11.706 68.465 30.469 15.566 16.57 22.415 37.683 21.938 60.059-.787 19.582-10.172 34.849-23.25 48.695l-1.758 1.953c-6.862 7.323-15.217 13.077-23.242 19.047.639 4.445 2.331 8.183 4.281 12.18l1.007 2.09 2.129 4.382 3.153 6.543c5.891 12.197 12.265 24.258 20.68 34.93l2.391 3.07c2.325 2.764 4.797 5.263 7.359 7.805a186.89 186.89 0 0 1 4.188 5l2.043 2.5c3.434 4.851 4.748 9.587 3.77 15.5-2.748 8.155-7.626 13.673-14.887 18.168-2.71 1.067-4.954 1.133-7.863 1.145l-2.984.051c-7.656-.852-13.723-4.567-20.016-8.801l-2.381-1.602c-11.759-8.127-20.623-18.386-28.869-29.961l-2.129-2.914c-6.528-9.497-11.295-19.901-16.175-30.309l-.896-1.902-2.431-5.208c-1.231-2.733-1.231-2.733-3.369-4.667-1.115 6.323-2.043 12.555-2.293 18.978-.493 12.192-2.454 22.134-11.379 30.987-7.09 6.198-13.901 6.969-23.187 6.543-8.565-.771-14.184-5.963-19.668-12.187-9.216-14.521-4.707-36.874-3.605-53.399 1.205-18.442 1.409-36.824 1.328-55.3l-.01-9.257-.635-47.01-.117-3.947c-.207-6.179-.529-12.303-1.218-18.448-.973-8.84-.781-17.781 4.534-25.211 7.641-9.329 16.383-12.262 27.875-14.812l3.371-.775c10.409-2.357 20.667-4.549 31.379-4.412zm242.582-81.156c5.141 3.539 9.3 9.75 10.545 15.88l.349 2.729.391 2.969.383 3.078.406 3.125L1700 611l1.813-.184L1722 609l2.173-.175c7.859-.561 13.565.165 19.827 5.175 5.876 5.321 8.569 11.12 9.438 18.938-.351 7.457-4.051 13.591-9.453 18.555-5.981 4.545-11.559 6.137-18.984 5.508l-1.946-.5c-2.234-.544-4.305-.708-6.601-.817l-2.559-.127-2.645-.119-2.691-.131L1702 655l.976 3.85c1.152 5.212 1.354 10.227 1.403 15.55l.05 3.03.092 6.482.153 10.346.326 22.055.438 28.863.058 3.515c.271 15.923.953 31.693 2.297 47.562.599 7.9.697 15.828.833 23.747l.055 2.84.501 57.06.028 6.816.021 10.848.023 5.909c-.038 15.385-1.816 28.791-12.74 40.257-8.318 7.516-15.738 9.768-26.766 9.676-8.449-.916-15.708-5.363-21.352-11.625-9.557-12.207-8.551-27.816-8.527-42.566l-.004-4.324.008-11.561.007-7.201.559-67.067.059-3.704.187-10.324.051-3.011c.089-4.139.242-8.214.745-12.324.766-6.285.921-12.603 1.169-18.926l.176-4.178.723-17.553c.725-18.235 1.883-36.33 3.793-54.481.712-6.809 1.151-13.606 1.449-20.444A50.64 50.64 0 0 1 1650 656l-1.844.07c-27.143.559-27.143.559-35.113-6.902-5.228-5.739-7.507-9.761-7.277-17.582.725-7.995 4.033-11.871 10.078-17.02 3.317-2.41 6.249-2.741 10.234-3.031l3.02-.236 6.258-.461c8.036-.509 8.036-.509 15.645-2.838 1.998-3.783 2.245-7.579 2.581-11.812.606-7.4 1.692-13.057 7.419-18.188 7.771-6.348 17.054-6.818 25.957-2.406zM641.141 666.805c5.998 3.856 10.271 8.079 12.445 15.082 1.28 6.531 1.325 13.295-2.07 19.152-4.59 5.939-10.768 10.395-16.703 14.898-9.52 7.565-14.04 17.743-17.813 29.063-.354 3.824-.501 6.166 1.5 9.5 2.706 2.706 5.535 5.203 8.43 7.703 15.444 13.404 25.652 31.324 27.318 51.852 1.142 21.428-2.008 40.674-16.748 57.32L633 876l-1.637 1.855c-9.219 10.148-21.601 16.537-35.195 17.383-10.62.198-19.602-.818-27.629-8.426-5.312-6.256-7.396-12.673-7.027-20.848 1.886-11.455 9.641-17.507 18.57-23.918l5.68-3.906c8.673-5.588 8.673-5.588 12.926-14.578-.93-4.821-3.116-7.272-6.687-10.562-3.125-2.053-6.407-3.707-9.75-5.375-7.79-4.089-14.293-8.043-20.25-14.625l-1.711-1.879C548.36 776.619 547.932 759.878 549 742c2.778-23.07 21.067-47.678 38.75-61.875 7.127-5.503 14.996-9.579 23.25-13.125l1.993-.867c8.915-3.64 19.529-3.961 28.147.672z" fill="#010101"/><path fill="#020202" d="M1598.438 675.5c7.102 4.328 11.293 10.596 13.563 18.5.841 4.021 1.463 8.062 2.063 12.125l.486 3.148.959 6.421 1.065 6.653c1.486 9.097 1.57 17.915 1.24 27.091l-.155 4.925-.526 14.293-.418 10.895-.848 20.616-.338 8.171c-.556 13.789-1.379 27.426-3.446 41.081l-.482 3.197c-1.846 11.243-5.151 20.443-14.601 27.385-6.083 2.861-12.355 3.201-18.762 1.09-7.34-3.412-11.425-7.539-14.273-15.172-1.879-5.326-2.924-10.378-3.527-15.98l-.349-3.09c-2.14-20.546-3.121-41.22-4.089-61.848l-.119-2.389c-.987-19.977.693-39.662 2.613-59.53l.563-6.001 1.142-11.356.32-3.437c.973-8.744 3.341-17.528 10.481-23.286l1.938-1.625c7.125-4.75 17.648-5.354 25.5-1.875z"/><path fill="#fdfdfd" d="M876.512 687.445c9.882 2.451 17.428 8.177 22.895 16.699 12.6 22.575 13.165 46.58 6.492 71.086-1.159 3.974-2.496 7.875-3.898 11.77l-1.305 3.695C892.783 811.749 880.404 828.814 865 845l-2.039 2.199-1.773 1.863-1.457 1.535c-2.37 1.921-4.979 3.109-7.73 4.402-6.066-10.39-9.198-21.375-12-33l-.65-2.653c-3.255-13.926-3.716-27.739-3.725-41.972l-.006-2.595c.007-25.803 5.011-50.891 16.819-73.968l1.052-2.105c5.535-10.35 11.65-13.278 23.023-11.262z"/><path d="M1835.819 826.739l6.935-.013c25.955-.027 25.955-.027 34.273 6.301 6.721 6.721 9.509 13.406 10.285 22.723-.147 7.695-3.75 14.867-9.083 20.306-8.848 7.717-18.728 8.909-29.979 9.194l-4.718.187-10.548.369-16.37.603-18.427.717-3.553.136-20.338.649-6.652.207-9.719.25-2.897.117c-7.689.097-14.259-1.975-19.978-7.299-5.811-6.315-6.576-12.3-6.418-20.736.633-5.95 2.811-9.18 7.211-13.086 18.142-13.438 46.523-15.301 68.156-18.363l3.68-.548c9.413-1.311 18.638-1.765 28.139-1.712zM521 833c6.557 6.569 9.979 13.738 10.438 23-.291 7.839-3.782 14.474-9.249 20.027-11.399 10.274-25.763 9.252-40.251 9.785l-7.446.337L453 887l-5.584.214L418 888l-3.725.083-10.4.167-2.982.065c-8.568.04-16.028-1.553-22.385-7.6-5.097-5.797-6.117-11.234-5.828-18.879.731-6.473 3.305-10.601 8.32-14.836 15.496-11.784 39.379-13.739 58.125-16.75l2.92-.471c62.226-9.815 62.226-9.815 78.955 3.221zm1350-167.812c5.201 4.53 8.524 9.045 9.402 15.996.229 7.94-.903 13.683-5.027 20.504-7.262 7.071-16.735 9.357-26.437 10.969l-2.631.448-5.507.928-8.288 1.402c-13.952 2.366-27.819 4.583-41.949 5.566-6.998.516-13.931 1.108-20.875 2.125-18.049 2.48-18.049 2.48-26.562-3.359-6.209-5.159-9.2-11.888-10.445-19.801-.416-6.967 2.682-13.053 6.695-18.59 14.145-15.2 42.107-16.626 61.188-19.125l6.752-.918c48.826-6.619 48.826-6.619 63.686 3.855zM517 667c5.131 5.603 8.497 10.941 8.246 18.758-.852 7.767-3.26 14.101-9.246 19.242-7.092 4.475-14.311 6.22-22.5 7.563l-3.571.619L479 715l-6.453 1.098c-13.216 2.188-26.452 3.704-39.792 4.864-6.796.599-13.454 1.438-20.173 2.62-7.806 1.267-16.635 1.719-23.582-2.581-5.511-4.184-9.3-9.258-11-16-1.108-8.226-.734-14.973 4.109-21.887 3.196-3.572 6.675-5.882 10.891-8.113l2.426-1.332C422.04 660.3 493.497 646.957 517 667zm-22 91c2.875 2.5 2.875 2.5 5 5l2.188 2.563c4.607 6.196 4.529 11.86 3.813 19.438-1.672 6.199-5.613 10.636-11 14-25.766 12.355-67.679 12.696-95.437 8.813l-2.278-.305c-6.753-1.137-12.063-4.115-16.722-9.133-3.51-5.335-3.111-11.206-2.562-17.375 1.711-6.216 5.642-10.561 11-14 15.711-7.909 33.576-9.2 50.813-10.5 10.025-.761 19.976-1.633 29.929-3.073 9.729-1.276 16.94-1.019 25.258 4.573zm1357 1c4.779 4.404 9.467 9.624 10.277 16.277.262 6.804-.436 13.427-5.012 18.734-6.399 5.915-12.99 8.27-21.516 9.488l-2.431.365c-75.69 10.985-75.69 10.985-95.319-2.865-3.369-3.02-3.863-5.863-4.395-10.277-.348-7.587.195-13.022 5.395-18.723 11.559-12.426 33.561-13.21 49.438-14.5l8.418-.738 2.096-.186c7.389-.671 14.741-1.612 22.085-2.662 11.753-1.601 21.092-2.251 30.963 5.086z" fill="#020202"/><path fill="#fcfcfc" d="M1432 708c14.185-.819 25.57 1.069 36.77 10.68 5.915 6.153 9.93 12.655 10.48 21.195-.13 5.876-2.389 9.541-6.562 13.563-5.561 4.652-12.125 7.591-18.687 10.563l-2.279 1.053c-3.228 1.123-6.127 1.365-9.534 1.572l-3.52.227L1436 767l-.152-2.652-.723-12.223-.134-2.217c-.597-9.778-1.349-19.5-2.624-29.217-.423-4.251-.444-8.425-.367-12.691z"/><path d="M1316 736h2c.516 14.268-.495 27.16-4 41l-.731 2.922c-17.846 70.037-17.846 70.037-39.269 85.078.608-3.413 1.468-6.512 2.715-9.745l1.065-2.781 1.157-2.986 2.45-6.389 1.295-3.363c6.794-17.659 13.53-35.309 19.487-53.27l2.444-6.951c5.063-14.161 8.136-28.856 11.387-43.516z" class="B"/><path d="M987 815c3 1 3 1 4.116 2.892l1.048 2.499 1.198 2.809 1.263 3.05 1.327 3.125L1000 839c7.477 17.836 14.163 33.189 28 47l1.617 1.622 7.398 7.331C1039 897 1039 897 1039 898c-6.873.908-10.632-.991-16.27-4.902-17.606-13.526-27.117-36.109-32.73-57.098l-.902-3.148c-1.679-6.144-2.416-11.486-2.098-17.852z" class="C"/><path d="M1163 886c4.589 1.395 7.174 3.916 10.25 7.438l1.453 1.617c3.049 3.422 5.908 6.962 8.734 10.571 8.425 10.382 18.856 17.183 30.563 23.375l4.668 2.496L1231 938v3c-15.771 1.882-28.991-6.659-41-16l-2.641-2.047c-10.036-8.395-19.401-20.797-24.359-32.953v-4zm-461-44h2l2.938 5.125C716.46 863.849 729.935 877.215 745 889l3.344 2.648 14.438 11.238 1.829 1.395 3.479 2.634c1.321 1.005 2.619 2.041 3.911 3.084v1c-13.273 1.154-25.044-8.424-34.779-16.47-3.527-3.057-6.881-6.272-10.221-9.53l-1.941-1.754c-8.035-7.438-14.07-17.286-19.684-26.621l-1.977-3.273c-1.731-4.147-1.66-6.9-1.398-11.352z" class="E"/><path d="M287 618c5.937-.758 9.066.74 13.863 4.242 8.294 6.823 13.793 17.044 15.137 27.758 1.215 15.061-3.02 27.298-11 40-1.715 1.867-1.715 1.867-3 3l-3-1 .535-1.725 2.403-7.838.842-2.713c4.668-15.355 5.431-31.678-2.15-46.162-3.719-5.851-8.723-10.704-13.629-15.562z" class="D"/><path d="M579 711l2 1-1.645 2.973c-7.72 14.377-12.527 30.301-8.441 46.695 2.298 6.798 5.319 13.041 8.949 19.223C581 783 581 783 581 785c-4.49-.513-6.806-1.806-10-5-8.871-12.891-12.399-26.562-9.618-42.142 2.317-9.589 6.658-19.76 15.055-25.483L579 711zm261-48l-2.09 2.238-7.439 8.133-3.924 4.312c-4.222 4.849-7.528 9.812-10.348 15.582l-1.035 2.096c-3.86 7.915-7.275 16.013-10.664 24.138l-1.914 4.551L798 735c-3.057-4.586-2.597-8.619-2-14 4.914-21.759 16.742-43.312 35.043-56.469 3.407-2.15 5.159-2.764 8.957-1.531z" class="F"/><path d="M917 719c6.047 4.872 8.455 11.524 9.384 19.153.152 3.334.171 6.635.116 9.972l-.041 3.595c-.38 16.24-3.824 33.806-15.15 46.233C909 800 909 800 908 800c.616-5.247 1.8-10.029 3.375-15.062 2.303-7.58 4.149-15.149 5.625-22.937l.528-2.775c.489-3.339.602-6.5.605-9.873l.004-3.797-.012-3.93.012-3.906c-.007-6.332-.139-12.462-1.137-18.719z" class="B"/><path d="M1652 880l4 1 2.93 15.219c2.619 17.432 2.619 17.432 12.07 31.781a93.12 93.12 0 0 0 7.891 3.727C1681 933 1681 933 1681.859 935.086L1682 937c-1 1-1 1-4.062 1.25-7.325-.465-12.408-2.742-17.406-8.184-7.999-10.795-9.729-27.317-9.656-40.379l-.012-2.166c.01-5.268.01-5.268 1.137-7.521zM313 957c3.634 1.356 7.033 3.02 10.467 4.818 13.314 6.918 25.439 10.774 40.533 9.182 3.129-1.017 5.224-2.187 8-4h2c.375 2.688.375 2.688 0 6-5.426 5.823-11.164 7.073-19 7.438-14.497-.266-29.12-7.375-39.797-17.016-1.701-2.01-2.127-3.821-2.203-6.422z" class="C"/><path d="M849 928c5.212 1.631 9.13 4.893 13.438 8.125C877.773 947.391 891.809 954.871 911 957c-2.261 3.674-3.453 4.855-7.691 5.977-4.775.312-8.801-.982-13.246-2.602l-2.406-.848C877.149 955.728 869.44 950.32 861 943l-1.529-1.321c-9.776-8.495-9.776-8.495-11.471-12.679l1-1z" class="B"/><path d="M777 597l-2.641 2.02c-19.685 15.176-36.051 32.578-51.047 52.398L722 653h-1c.285-14.806 13.292-27.899 23.367-37.676C769.418 593.209 769.418 593.209 777 597z" class="F"/><path d="M126 868l.332 2.203c2.956 20.751 2.956 20.751 15.418 36.734 4.817 3.046 9.868 5.219 15.25 7.063-1.062 2-1.062 2-3 4-7.863 1.039-13.694-2.69-20-7-6.669-6.264-11.407-15.765-12.161-24.967l-.089-6.595-.062-2.326c-.039-5.621-.039-5.621 1.766-8.139C125 868 125 868 126 868zm1003-81h1c1.115 16.439-7.418 30.633-17.395 43.027-3.432 3.915-7.112 7.31-11.605 9.973h-2c1.353-3.569 2.937-6.854 4.801-10.184l1.695-3.031 1.817-3.223 1.866-3.32c17.377-30.797 17.377-30.797 19.822-33.242zm356-75c3.351 1.386 4.834 2.776 6.688 5.875l1.262 2.055c3.606 7.105 3.148 16.867 1.18 24.406-3.432 8.755-8.542 17.275-17.129 21.664h-4c.52-4.318 1.902-6.449 4.75-9.687 8.444-10.141 11.168-19.237 10.25-32.312a50.33 50.33 0 0 0-2.344-7.195C1485 715 1485 715 1485 712z" class="C"/><path d="M1485 889c3.203 1.416 5.361 3.141 7.875 5.563 7.902 7.147 17.012 13.29 27.234 16.488 2.414 1.212 2.933 2.478 3.891 4.949-3.895 2.596-5.94 2.104-10.441 1.535-10.046-2.101-17.263-11.058-23.559-18.535l-1.551-1.703c-2.791-3.114-3.449-3.93-3.449-8.297z" class="D"/><path d="M1389 851c3.113 2.527 3.642 4.826 4.438 8.688 2.573 10.936 6.629 15.894 15.5 22.5L1411 884v3c-3.834 1.15-6.39 1.153-10-.437-6.887-3.851-10.625-10.61-13.312-17.832-1.222-4.852-1.336-9.777-.687-14.73l2-3z" class="B"/><path d="M1053 638l2 1c-2.281 2.811-4.991 4.029-8.244 5.5-8.581 3.889-15.234 8.813-22.158 15.156C1022 662 1022 662 1021 662c.029-6.183 1.149-10.349 5.121-15.145 7.347-7.256 16.6-12.282 26.879-8.855z" class="G"/><path d="M1592 682l1 4-1.793 1.031c-10.162 6.233-14.754 15.936-17.848 27.328L1573 716l-3-1c-2.409-7.226-1.211-12.52 2.063-19.187 4.621-9.006 9.555-14.005 19.938-13.812zM514 842c3.161 1.37 3.993 1.989 6 5 1.196 8.271-.116 15.188-5 22-3.502 3.198-5.139 3.944-9.875 4.25L502 873c1.102-3.526 2.726-6.024 5-8.875 4.314-5.616 5.172-11.306 5.754-18.207C513 844 513 844 514 842zm1356 0c3 1 3 1 5 4 1.516 6.953 1.637 13.727-2 20-2.771 3.369-5.679 6.52-10.078 7.43-1.922.008-1.922.008-4.922-.43.601-3.315 1.736-5.174 3.875-7.75 4.921-6.396 6.401-12.251 6.914-20.246C1869 843 1869 843 1870 842z" class="C"/><path d="M117 775c1 2 1 2 .223 4.434l-1.16 3.004c-3.407 9.959-2.646 17.29 1.16 27.031C118 812 118 812 117 815l-3.312-2.625-1.863-1.477c-4.668-4.858-5.379-9.849-5.324-16.273l.013-2.282c.178-5.804 1.152-10.195 5.487-14.343 2.813-2 2.813-2 5-3z" class="E"/><path d="M1744 854l.813 2.527c2.801 8.044 6.085 13.564 12.188 19.473l4 4c-11.803.859-11.803.859-15.5-1.937-4.014-4.917-6.661-9.939-6.937-16.375.445-3.751.985-7.687 5.438-7.687z" class="F"/><path d="M386 854h2c1.902 2.853 2.429 4.443 3.188 7.688 1.646 5.731 4.629 9.184 8.813 13.313l1.566 1.605L405 880c-10.764.618-10.764.618-15-1.5-5.214-6.517-6.442-11.58-6.336-19.961C384 856 384 856 386 854z" class="E"/><path d="M574 862h3l.918 2.047 1.27 2.703 1.23 2.672c3.1 5.051 7.3 7.088 12.707 9.141 3.641 1.385 6.341 2.423 8.875 5.438-5.262 2.054-9.823 3.225-15.27 1.125-5.553-2.799-8.61-5.762-11.73-11.125-1.285-4.032-1.07-7.801-1-12z" class="G"/><path d="M1168 699l-1.25 1.844c-3.732 5.664-7.026 11.407-10.062 17.469l-1.021 2.027c-1.88 3.813-3.42 7.582-4.666 11.66l-2-1c-.445-8.583-.8-16.549 4-24 4.563-4.924 8.161-8.18 15-8z" class="E"/><path fill="#f0f0f0" d="M131 575l.113 2.195c.514 9.144.514 9.144 5.688 16.391 3.561 2.75 7.276 5.207 11.199 7.414-2.439 2.439-3.316 2.376-6.687 2.5-4.909-.092-7.331-1.363-10.84-4.699-4.357-5.328-4.99-9.197-4.84-15.973.377-2.905 1.652-7.828 5.367-7.828z"/><path fill="#efefef" d="M1572 844l3.402 6.91 1.535 3.152 1.527 3.16c1.348 2.44 2.56 3.885 4.535 5.777v2l1.875.75c2.476 1.456 3.076 2.628 4.125 5.25-1 1-1 1-4.125 1.438-5.157-.582-7.452-2.687-10.875-6.437-3.276-4.587-4.145-8.487-4.187-14.062l-.043-2.598c.23-2.34.23-2.34 2.23-5.34z"/><path d="M1407 673c-.58 3.237-1.494 4.767-3.812 7.063-5.405 6.027-7.142 14.266-9.187 21.938h-2c-3.062-4.593-2.59-9.025-1.535-14.344 1.615-5.581 4.293-9.686 8.535-13.656 2.709-1.354 5.009-1.065 8-1zM148 626c0 3 0 3-1.574 4.691l-2.113 1.871c-5.938 5.706-9.038 12.58-11.312 20.438h-3c-.793-9.369.017-15.578 6-23 3.843-4.138 6.435-4.436 12-4zm1591-2c3 1 3 1 4 3 .598 5.978-.651 10.13-4 15-3.295 3.405-6.278 5.966-11.125 6.063L1725 648v-4c1.793-1.719 1.793-1.719 4.188-3.5 5.514-4.592 7.592-9.804 9.813-16.5z" class="G"/><path d="M492 766h2c3.121 5.072 3.849 9.199 3 15-1.394 4.915-3.063 8.183-6.937 11.563-3.116 1.463-4.71 1.568-8.062 1.438l1.68-3.078c4.368-8.224 7.605-15.478 8.32-24.922z" class="F"/><path d="M1744 692h2c1.281 1.573 1.281 1.573 2.715 3.762l1.58 2.393 1.643 2.533 1.631 2.475c2.56 3.899 5.077 7.81 7.432 11.838-7.064.479-7.064.479-10.687-1.375-4.307-4.89-7.604-10.539-7.687-17.187C1743 693 1743 693 1744 692zm103 73c2.513 1.634 3.561 2.426 5 5 .842 5.768 1.508 12.591-1.812 17.688L1848 790l-1.312 1.813c-2.67 1.879-5.502 1.887-8.687 2.188l.84-1.652c1.292-2.615 2.513-5.256 3.723-7.91l1.316-2.879c1.681-3.837 2.342-7.094 2.684-11.246l.254-3.012L1847 765zM388 692c3.709 1.236 4.238 2.436 6.355 5.656l1.885 2.848 1.947 2.996 1.982 2.996C405 713.839 405 713.839 405 715c-7.165.607-7.165.607-10.75-2-4.555-6.073-6.856-11.384-7.25-19l1-2z" class="D"/><path d="M1866 677l4 2c.458 6.414-.424 10.613-4 16-2.545 2.856-4.821 4.881-8 7-2.687.125-2.687.125-5 0 1.826-3.863 4.153-7.263 6.563-10.781 2.757-4.255 4.056-8.339 5.438-13.219l1-1zm-1356 0l4 2c.383 7.268-.844 12.457-5.437 18.313-3.145 3.299-4.769 4.606-9.312 4.813L497 702c1.738-3.744 4.032-6.761 6.563-10 2.358-3.281 3.38-5.581 3.938-9.625C508 679 508 679 510 677z" class="G"/><path d="M1310 597h2l-.437 10.625-.119 3.027c-.209 4.857-.473 9.569-1.443 14.348-1.875-.125-1.875-.125-4-1-2.643-6.31-3.734-14.591-1.172-21.105 1.471-2.223 3.291-4.014 5.172-5.895z" class="C"/><path fill="#f0f0f0" d="M1748 775h1l.262 2.09c1.095 7.325 2.952 14.204 8.398 19.535C1759 798 1759 798 1759 800c-3.061.448-5.205.489-7.887-1.16-3.485-2.856-6.142-5.307-7.113-9.84-.595-6.245.006-9.159 4-14z"/><path d="M392 775h1l.262 1.836c1.477 8.81 4.708 16.464 10.738 23.164-4.42.442-6.476.343-10.25-2.125-3.763-3.934-5.498-6.892-6.187-12.312.548-4.462 1.995-6.823 4.438-10.562z" class="D"/><path d="M858 604c.422 4.308.563 6.293-2.187 9.75-5.598 4.478-8.646 5.944-15.812 5.25-1.742-1.523-1.742-1.523-3-3l1.421-.886 6.391-3.989 2.236-1.395 2.158-1.348 1.984-1.238C856.16 604 856.16 604 858 604z" class="B"/><path d="M640 681c2 2 2 2 2.438 5.5-.183 6.283-3.006 11.968-7.328 16.469-1.643 1.416-3.37 2.735-5.109 4.031l-2-1c.587-3.751 1.649-6.559 3.504-9.863l1.494-2.686 1.564-2.764 1.576-2.822L640 681z" class="D"/><path d="M1620 625c2.273 2.078 3.604 3.901 4.824 6.723l.928 2.131.936 2.209.971 2.221C1630 643.721 1630 643.721 1630 646c-2.125.438-2.125.438-5 0-3.808-3.389-6.767-6.958-7.168-12.191l-.02-2.371-.043-2.379C1618 627 1618 627 1620 625z" class="B"/><path fill="#efefef" d="M1676.313 579.25l1.688.75c-.581 4.156-2.87 6.791-5.375 10.063l-2.398 3.16c-1.667 2.079-3.284 3.967-5.227 5.777-1-1-1-1-1.02-2.855.606-6.828 2.535-10.723 7.52-15.582 2.5-1.562 2.5-1.562 4.813-1.312z"/><path fill="#cecece" d="M775 596l2 1-7 5-1-2c2.052-2.248 3.007-3.002 6-4z"/></svg>