<svg xmlns="http://www.w3.org/2000/svg" width="68" height="69" fill="none" xmlns:v="https://vecta.io/nano"><g clip-path="url(#A)"><path d="M41.556.062H26.444a3.78 3.78 0 0 0-3.778 3.778V18.95a3.78 3.78 0 0 0 3.778 3.778h15.111a3.78 3.78 0 0 0 3.778-3.778V3.839A3.78 3.78 0 0 0 41.556.062z" fill="#1e397c"/><path d="M41.556 11.395H26.444a3.78 3.78 0 0 0-3.778 3.778v15.111a3.78 3.78 0 0 0 3.778 3.778h15.111a3.78 3.78 0 0 0 3.778-3.778V15.173a3.78 3.78 0 0 0-3.778-3.778z" fill="#2f55a8"/><path d="M41.556 45.395H26.444a3.78 3.78 0 0 0-3.778 3.778v15.111a3.78 3.78 0 0 0 3.778 3.778h15.111a3.78 3.78 0 0 0 3.778-3.778V49.173a3.78 3.78 0 0 0-3.778-3.778z" fill="#1e397c"/><path d="M41.556 34.062H26.444a3.78 3.78 0 0 0-3.778 3.778V52.95a3.78 3.78 0 0 0 3.778 3.778h15.111a3.78 3.78 0 0 0 3.778-3.778V37.839a3.78 3.78 0 0 0-3.778-3.778z" fill="#2f55a8"/><path d="M64.222 22.728H49.111a3.78 3.78 0 0 0-3.778 3.778v15.111a3.78 3.78 0 0 0 3.778 3.778h15.111A3.78 3.78 0 0 0 68 41.617V26.506a3.78 3.78 0 0 0-3.778-3.778z" fill="#1e397c"/><path d="M52.889 22.728H37.778A3.78 3.78 0 0 0 34 26.506v15.111a3.78 3.78 0 0 0 3.778 3.778h15.111a3.78 3.78 0 0 0 3.778-3.778V26.506a3.78 3.78 0 0 0-3.778-3.778z" fill="#2f55a8"/><path d="M18.889 22.728H3.778A3.78 3.78 0 0 0 0 26.506v15.111a3.78 3.78 0 0 0 3.778 3.778h15.111a3.78 3.78 0 0 0 3.778-3.778V26.506a3.78 3.78 0 0 0-3.778-3.778z" fill="#1e397c"/><path d="M30.222 22.728H15.111a3.78 3.78 0 0 0-3.778 3.778v15.111a3.78 3.78 0 0 0 3.778 3.778h15.111A3.78 3.78 0 0 0 34 41.617V26.506a3.78 3.78 0 0 0-3.778-3.778z" fill="#2f55a8"/><path d="M41.556 22.728H26.444a3.78 3.78 0 0 0-3.778 3.778v15.111a3.78 3.78 0 0 0 3.778 3.778h15.111a3.78 3.78 0 0 0 3.778-3.778V26.506a3.78 3.78 0 0 0-3.778-3.778z" fill="#4e7bdb"/></g><defs><clipPath id="A"><path fill="#fff" transform="translate(0 .062)" d="M0 0h68v68H0z"/></clipPath></defs></svg>