<svg xmlns="http://www.w3.org/2000/svg" width="72" height="73" fill="none" xmlns:v="https://vecta.io/nano"><g clip-path="url(#A)"><path d="M60.821 41.108H44.86a3.99 3.99 0 0 0-3.99 3.99v15.961a3.99 3.99 0 0 0 3.99 3.99h15.961a3.99 3.99 0 0 0 3.99-3.99V45.098a3.99 3.99 0 0 0-3.99-3.99z" fill="#4e7bdb"/><path d="M43.892 48.12H27.931a3.99 3.99 0 0 0-3.99 3.99v15.961a3.99 3.99 0 0 0 3.99 3.99h15.961a3.99 3.99 0 0 0 3.99-3.99V52.111a3.99 3.99 0 0 0-3.99-3.99z" fill="#4772cd"/><path d="M26.963 41.108H11.003a3.99 3.99 0 0 0-3.99 3.99v15.961a3.99 3.99 0 0 0 3.99 3.99h15.961a3.99 3.99 0 0 0 3.99-3.99V45.098a3.99 3.99 0 0 0-3.99-3.99z" fill="#4069bf"/><path d="M19.951 24.179H3.99A3.99 3.99 0 0 0 0 28.17V44.13a3.99 3.99 0 0 0 3.99 3.99h15.961a3.99 3.99 0 0 0 3.99-3.99V28.17a3.99 3.99 0 0 0-3.99-3.99z" fill="#3960b1"/><path d="M26.963 7.251H11.003a3.99 3.99 0 0 0-3.99 3.99v15.961a3.99 3.99 0 0 0 3.99 3.99h15.961a3.99 3.99 0 0 0 3.99-3.99V11.241a3.99 3.99 0 0 0-3.99-3.99z" fill="#3257a3"/><path d="M43.892.238H27.931a3.99 3.99 0 0 0-3.99 3.99v15.961a3.99 3.99 0 0 0 3.99 3.99h15.961a3.99 3.99 0 0 0 3.99-3.99V4.228a3.99 3.99 0 0 0-3.99-3.99z" fill="#2b4e95"/><path d="M60.821 7.251H44.86a3.99 3.99 0 0 0-3.99 3.99v15.961a3.99 3.99 0 0 0 3.99 3.99h15.961a3.99 3.99 0 0 0 3.99-3.99V11.241a3.99 3.99 0 0 0-3.99-3.99z" fill="#244587"/><path d="M67.833 24.179H51.872a3.99 3.99 0 0 0-3.99 3.99V44.13a3.99 3.99 0 0 0 3.99 3.99h15.961a3.99 3.99 0 0 0 3.99-3.99V28.17a3.99 3.99 0 0 0-3.99-3.99z" fill="#1e397c"/></g><defs><clipPath id="A"><path fill="#fff" transform="translate(0 .238)" d="M0 0h71.823v71.823H0z"/></clipPath></defs></svg>