<svg xmlns="http://www.w3.org/2000/svg" width="68" height="69" fill="none" xmlns:v="https://vecta.io/nano"><g clip-path="url(#A)"><path d="M12.089 12.15H3.778A3.78 3.78 0 0 0 0 15.928v36.267a3.78 3.78 0 0 0 3.778 3.778h8.311a3.78 3.78 0 0 0 3.778-3.778V15.928a3.78 3.78 0 0 0-3.778-3.778z" fill="#1e397c"/><use href="#B" fill="#2f55a8"/><path d="M64.222 12.15h-8.311a3.78 3.78 0 0 0-3.778 3.778v36.267a3.78 3.78 0 0 0 3.778 3.778h8.311A3.78 3.78 0 0 0 68 52.195V15.928a3.78 3.78 0 0 0-3.778-3.778z" fill="#1e397c"/><path d="M51.944 6.106h-9.822a3.78 3.78 0 0 0-3.778 3.778v48.356a3.78 3.78 0 0 0 3.778 3.778h9.822a3.78 3.78 0 0 0 3.778-3.778V9.884a3.78 3.78 0 0 0-3.778-3.778z" fill="#2f55a8"/><path d="M39.667.061H28.333a3.78 3.78 0 0 0-3.778 3.778v60.444a3.78 3.78 0 0 0 3.778 3.778h11.333a3.78 3.78 0 0 0 3.778-3.778V3.839A3.78 3.78 0 0 0 39.667.061z" fill="#4e7bdb"/></g><defs><clipPath id="A"><path fill="#fff" transform="translate(0 .061)" d="M0 0h68v68H0z"/></clipPath><path id="B" d="M25.878 6.106h-9.822a3.78 3.78 0 0 0-3.778 3.778v48.356a3.78 3.78 0 0 0 3.778 3.778h9.822a3.78 3.78 0 0 0 3.778-3.778V9.884a3.78 3.78 0 0 0-3.778-3.778z"/></defs></svg>