<svg xmlns="http://www.w3.org/2000/svg" version="1.1" viewBox="2 4.68 235 79.85">
<path d="M0 0 C0.66 2.64 1.32 5.28 2 8 C1.01 8.33 0.02 8.66 -1 9 C-0.34773438 9.17015625 0.30453125 9.3403125 0.9765625 9.515625 C6.2555526 10.97941577 10.74893845 12.38659768 15 16 C16.375 18.75 16.375 18.75 17 21 C12.375 25 12.375 25 9 25 C9.061875 26.11375 9.12375 27.2275 9.1875 28.375 C9.17848419 33.42385547 8.26173256 38.45965627 6 43 C3.890625 44.2890625 3.890625 44.2890625 2 45 C-1 43.25 -1 43.25 -4 41 C-4 39.68 -4 38.36 -4 37 C-4.804375 37.474375 -5.60875 37.94875 -6.4375 38.4375 C-12.52872074 41.10908804 -17.50511644 41.29897671 -24 40 C-23.34 36.7 -22.68 33.4 -22 30 C-20.68 30 -19.36 30 -18 30 C-18.48210937 29.49210937 -18.96421875 28.98421875 -19.4609375 28.4609375 C-24.11070504 23.39363982 -26.86265239 19.70838545 -27.125 12.625 C-27.08375 11.75875 -27.0425 10.8925 -27 10 C-24.03 10 -21.06 10 -18 10 C-17.67 11.32 -17.34 12.64 -17 14 C-16.484375 12.80375 -15.96875 11.6075 -15.4375 10.375 C-12.37178853 4.18863599 -7.14765916 -1.78691479 0 0 Z M-7 14 C-7.66 15.65 -8.32 17.3 -9 19 C-10.98 19 -12.96 19 -15 19 C-13.63676257 21.0399719 -13.63676257 21.0399719 -12 23 C-11.34 23 -10.68 23 -10 23 C-10.66 25.31 -11.32 27.62 -12 30 C-11.4225 29.649375 -10.845 29.29875 -10.25 28.9375 C-7.58613224 27.8275551 -6.66571663 28.05410055 -4 29 C-3.01 29.33 -2.02 29.66 -1 30 C-1.33 28.02 -1.66 26.04 -2 24 C-0.35 22.68 1.3 21.36 3 20 C0.69 19.67 -1.62 19.34 -4 19 C-4.33 17.35 -4.66 15.7 -5 14 C-5.66 14 -6.32 14 -7 14 Z M7 22 C8 24 8 24 8 24 Z " fill="#000000" transform="translate(124,5)"/>
<path d="M0 0 C0.33 1.65 0.66 3.3 1 5 C1.495 4.360625 1.99 3.72125 2.5 3.0625 C5.79917842 0.3406778 8.82938369 -0.20192928 13 0 C16.35257031 0.79729742 19.22827525 1.81581814 21.18310547 4.81542969 C22.1074423 7.28732628 22.22907947 9.13180116 22.1953125 11.765625 C22.18886719 12.65507813 22.18242188 13.54453125 22.17578125 14.4609375 C22.15902344 15.38132812 22.14226562 16.30171875 22.125 17.25 C22.11597656 18.18585938 22.10695312 19.12171875 22.09765625 20.0859375 C22.07413636 22.39088657 22.04126853 24.6953116 22 27 C18.91698584 27.11644156 15.83453877 27.18732432 12.75 27.25 C11.44095703 27.30027344 11.44095703 27.30027344 10.10546875 27.3515625 C3.63377862 27.45036693 3.63377862 27.45036693 0.421875 25.16796875 C-1.53574842 22.18313084 -1.57262643 20.50733689 -1 17 C0.3125 14.25 0.3125 14.25 3 12 C6.63201626 10.99139692 10.25910194 10.43213822 14 10 C13.67 9.34 13.34 8.68 13 8 C10.47266765 7.34444881 10.47266765 7.34444881 8 7 C7.67 7.99 7.34 8.98 7 10 C4.69 10 2.38 10 0 10 C0 9.34 0 8.68 0 8 C-2.99152582 8.77479736 -2.99152582 8.77479736 -6 10 C-7.15570704 13.46712111 -7.32835293 16.5414956 -7.5625 20.1875 C-7.64628906 21.45980469 -7.73007813 22.73210937 -7.81640625 24.04296875 C-7.87699219 25.01878906 -7.93757813 25.99460937 -8 27 C-10.31 27 -12.62 27 -15 27 C-15 18.42 -15 9.84 -15 1 C-12 1 -9 1 -6 1 C-3 0 -3 0 0 0 Z M7 18 C7.33 19.32 7.66 20.64 8 22 C9.65 21.67 11.3 21.34 13 21 C13.33 19.35 13.66 17.7 14 16 C9.95377498 15.63019987 9.95377498 15.63019987 7 18 Z " fill="#000000" transform="translate(76,57)"/>
<path d="M0 0 C0.99 0.66 1.98 1.32 3 2 C3.515625 1.484375 4.03125 0.96875 4.5625 0.4375 C8.04426568 -1.61584899 10.1631596 -0.97665028 14 0 C16.58455285 1.89533875 16.96275506 2.88826517 18 6 C18.08106686 7.55421729 18.10756898 9.11167027 18.09765625 10.66796875 C18.09443359 11.56064453 18.09121094 12.45332031 18.08789062 13.37304688 C18.07532227 14.76620117 18.07532227 14.76620117 18.0625 16.1875 C18.05798828 17.12787109 18.05347656 18.06824219 18.04882812 19.03710938 C18.03704626 21.35813712 18.02059558 23.67903644 18 26 C15.36 26 12.72 26 10 26 C9.505 16.595 9.505 16.595 9 7 C7.68 7.33 6.36 7.66 5 8 C4.67 13.94 4.34 19.88 4 26 C1.36 26 -1.28 26 -4 26 C-4.33 19.73 -4.66 13.46 -5 7 C-6.32 7 -7.64 7 -9 7 C-9.33 13.27 -9.66 19.54 -10 26 C-12.64 26 -15.28 26 -18 26 C-18 17.42 -18 8.84 -18 0 C-15 0 -12 0 -9 0 C-5.46627283 -1.17790906 -3.59454905 -0.82375082 0 0 Z " fill="#000000" transform="translate(118,58)"/>
<path d="M0 0 C4.46268393 0.61901745 8.7509786 0.67286193 13.25 0.625 C13.27886751 4.77081887 13.29675327 8.91661216 13.3125 13.0625 C13.32087891 14.24650391 13.32925781 15.43050781 13.33789062 16.65039062 C13.34272461 18.33745117 13.34272461 18.33745117 13.34765625 20.05859375 C13.35551147 21.62178345 13.35551147 21.62178345 13.36352539 23.21655273 C13.25 25.625 13.25 25.625 12.25 26.625 C9.91705225 26.66741723 7.58297433 26.66592937 5.25 26.625 C3.84687304 26.625 2.44325612 26.67640315 1.04296875 26.765625 C-6.00194805 27.06136364 -6.00194805 27.06136364 -9.75 24.875 C-13.84866193 20.26400533 -14.2416484 16.36978082 -14.13671875 10.32421875 C-13.52277065 6.03898505 -11.96445287 4.47417413 -8.75 1.625 C-5.59180653 -0.35545049 -3.66143164 -0.52472746 0 0 Z M-5.0625 8.1875 C-7.08796842 10.61907073 -7.08796842 10.61907073 -6.75 14.1875 C-6.00376889 17.58967222 -6.00376889 17.58967222 -4.0625 19.6875 C-1.64905412 20.92529794 -1.64905412 20.92529794 1.4375 19.875 C4.102669 18.89199069 4.102669 18.89199069 5.25 17.625 C5.48044597 14.76746998 5.66001903 12.42211611 5.25 9.625 C3.63451799 7.49605376 3.63451799 7.49605376 1.25 6.625 C-2.66275555 6.25176173 -2.66275555 6.25176173 -5.0625 8.1875 Z " fill="#000000" transform="translate(207.75,57.375)"/>
<path d="M0 0 C2.31 0 4.62 0 7 0 C7.33 5.28 7.66 10.56 8 16 C8.804375 14.845 9.60875 13.69 10.4375 12.5 C12.40276577 10.15770483 13.36829495 9.12223236 16.40234375 8.53515625 C18.63844091 8.55988402 20.78627681 8.69007875 23 9 C21.27845212 12.76488042 19.00765886 15.15063897 16 18 C17.35284811 22.79646149 19.46712974 26.78228985 21.9765625 31.046875 C23 33 23 33 23 35 C20.03 35 17.06 35 14 35 C12.68 32.03 11.36 29.06 10 26 C9.34 26.33 8.68 26.66 8 27 C7.53476937 28.89533342 7.53476937 28.89533342 7.375 31.0625 C7.25125 32.361875 7.1275 33.66125 7 35 C4.69 35 2.38 35 0 35 C0 23.45 0 11.9 0 0 Z " fill="#000000" transform="translate(37,49)"/>
<path d="M0 0 C3.65404257 2.07036661 6.82602502 4.89108758 8 9 C8.46612801 13.81665605 8.52190197 16.01211413 6.25 20.3125 C3.56440911 23.52028912 1.63629729 25.67674985 -2.55078125 26.50390625 C-7.67858643 26.61269985 -11.10331519 26.53052606 -15.125 23.125 C-18.30017365 19.98021078 -19.21185014 17.77763214 -19.4375 13.3125 C-19.40142486 8.3269161 -18.08891152 5.93178584 -14.703125 2.375 C-9.90567157 -1.49817341 -5.83549818 -1.57770835 0 0 Z M-9.75 8.125 C-12.33940503 10.81009764 -12.33940503 10.81009764 -11.9375 14.1875 C-11.20031442 17.09782797 -11.20031442 17.09782797 -9 19 C-5.5 19.33333333 -5.5 19.33333333 -2 19 C0.42144512 17.00314251 0.42144512 17.00314251 0.375 13.0625 C0.29609829 9.67480389 0.29609829 9.67480389 -1.8125 7 C-5.44302978 5.34032924 -6.58694733 5.68082294 -9.75 8.125 Z " fill="#000000" transform="translate(176,58)"/>
<path d="M0 0 C2.64 0 5.28 0 8 0 C9.32 4.29 10.64 8.58 12 13 C13.32 8.71 14.64 4.42 16 0 C18.64 0 21.28 0 24 0 C22.36231563 9.00726401 19.13020303 17.42639358 16 26 C13.36 26 10.72 26 8 26 C6.65613444 22.4205283 5.32676186 18.83584287 4 15.25 C3.6184375 14.23421875 3.236875 13.2184375 2.84375 12.171875 C2.4828125 11.1921875 2.121875 10.2125 1.75 9.203125 C1.24726562 7.85202637 1.24726562 7.85202637 0.734375 6.47363281 C0 4 0 4 0 0 Z " fill="#000000" transform="translate(2,58)"/>
<path d="M0 0 C2.4375 1.5625 2.4375 1.5625 4 3 C2.5511811 6.74278215 2.5511811 6.74278215 0.125 7.875 C-2.47386397 8.02787435 -3.8019253 7.33454536 -6 6 C-3.37518523 8.91646086 -0.27146762 10.86643416 3 13 C4 14 4 14 4.3125 17.8125 C4.24520302 20.69591657 4.04796486 21.91279116 2.625 24.5 C-1.37778177 26.78730387 -5.49730599 26.80095999 -10 26 C-12.3125 24.47265625 -12.3125 24.47265625 -14 23 C-13.64920302 20.36902268 -13.37396084 19.29382638 -11.25 17.625 C-8.23702475 16.78806243 -6.73658813 17.63170593 -4 19 C-3.67 18.34 -3.34 17.68 -3 17 C-3.721875 16.7525 -4.44375 16.505 -5.1875 16.25 C-8.36632957 14.83718686 -10.53541644 13.46458356 -13 11 C-14.0625 8.0625 -14.0625 8.0625 -14 5 C-10.17895505 -1.1409651 -6.82471526 -1.43678216 0 0 Z " fill="#000000" transform="translate(152,58)"/>
<path d="M0 0 C2.31 0 4.62 0 7 0 C7 11.88 7 23.76 7 36 C4.69 36 2.38 36 0 36 C0 24.12 0 12.24 0 0 Z " fill="#000000" transform="translate(185,48)"/>
<path d="M0 0 C-0.33 1.98 -0.66 3.96 -1 6 C-2.32 6.33 -3.64 6.66 -5 7 C-6.18031238 10.84841348 -6.33235351 14.758279 -6.5625 18.75 C-6.60568359 19.44738281 -6.64886719 20.14476563 -6.69335938 20.86328125 C-6.79889596 22.57531922 -6.8998991 24.28763561 -7 26 C-9.31 26 -11.62 26 -14 26 C-14 17.42 -14 8.84 -14 0 C-11.36 0 -8.72 0 -6 0 C-3.50907189 -1.24546405 -2.58919267 -0.7767578 0 0 Z " fill="#000000" transform="translate(237,58)"/>
<path d="M0 0 C2.64 0 5.28 0 8 0 C8 8.58 8 17.16 8 26 C5.36 26 2.72 26 0 26 C0 17.42 0 8.84 0 0 Z " fill="#000000" transform="translate(27,58)"/>
<path d="M0 0 C2.64 0 5.28 0 8 0 C8 2.31 8 4.62 8 7 C5.36 7 2.72 7 0 7 C0 4.69 0 2.38 0 0 Z " fill="#000000" transform="translate(27,49)"/>
</svg>